<svg xmlns="http://www.w3.org/2000/svg" width="76" height="75" viewBox="0 0 76 75">
  <g id="Grupo_522" data-name="Grupo 522" transform="translate(-0.13)">
    <rect id="Rect치ngulo_390" data-name="Rect치ngulo 390" width="76" height="75" rx="20" transform="translate(0.13)" fill="#fbbb00"/>
    <g id="video" transform="translate(18.13 23)">
      <path id="Sustracci칩n_1" data-name="Sustracci칩n 1" d="M34.849,29.257H7a7.008,7.008,0,0,1-7-7V7A7.008,7.008,0,0,1,7,0H34.849a7.008,7.008,0,0,1,7,7V22.257A7.008,7.008,0,0,1,34.849,29.257ZM18.445,7.435a2.006,2.006,0,0,0-2,2V19.818a2,2,0,0,0,3.051,1.7l8.4-5.189a2,2,0,0,0,0-3.4l-8.4-5.19A1.992,1.992,0,0,0,18.445,7.435Z" transform="translate(0 0)" fill="#fff"/>
    </g>
  </g>
</svg>
