<svg id="Grupo_523" data-name="Grupo 523" xmlns="http://www.w3.org/2000/svg" width="75" height="75" viewBox="0 0 75 75">
  <rect id="Rectángulo_389" data-name="Rectángulo 389" width="75" height="75" rx="20" fill="#fbbb00"/>
  <g id="artículos" transform="translate(19.894 14.439)">
    <path id="Trazado_234" data-name="Trazado 234" d="M307.132,7.726a3.97,3.97,0,0,0-1.155-2.812l-3.717-3.749A4.012,4.012,0,0,0,299.448,0h-.226V7.953h7.91V7.726Z" transform="translate(-273.007)" fill="#fff"/>
    <path id="Trazado_235" data-name="Trazado 235" d="M30.673,35.591l-4.179,1.47-.637.037a3.249,3.249,0,0,1-2.667-1.443,3.628,3.628,0,0,1-.447-3.118L24,28.577a5.615,5.615,0,0,1,1.263-2.161l8.9-9.339v-6H24.926a1.316,1.316,0,0,1-1.271-1.385V0H3.942A4.057,4.057,0,0,0,0,4.154V43.114a4.057,4.057,0,0,0,3.942,4.154h26.24a4.086,4.086,0,0,0,3.977-4.154V32.778l-1.444,1.485A5.19,5.19,0,0,1,30.673,35.591ZM6.571,13.848H24.926a1.387,1.387,0,0,1,0,2.77H6.571a1.387,1.387,0,0,1,0-2.77Zm0,5.539h13.1a1.387,1.387,0,0,1,0,2.77H6.571a1.387,1.387,0,0,1,0-2.77Zm0,5.539h13.1a1.387,1.387,0,0,1,0,2.77H6.571a1.387,1.387,0,0,1,0-2.77ZM5.257,31.851a1.35,1.35,0,0,1,1.314-1.385h13.1a1.387,1.387,0,0,1,0,2.77H6.571A1.35,1.35,0,0,1,5.257,31.851Zm19.67,9.694H17.041a1.387,1.387,0,0,1,0-2.77h7.885a1.387,1.387,0,0,1,0,2.77Z" fill="#fff"/>
    <path id="Trazado_236" data-name="Trazado 236" d="M288.529,327.106l3.428-1.155-3.116-3.143-1.143,3.46A.66.66,0,0,0,288.529,327.106Z" transform="translate(-262.461 -292.871)" fill="#fff"/>
    <path id="Trazado_237" data-name="Trazado 237" d="M318.82,208.037l3.733,3.765,8.654-8.731-3.732-3.765Z" transform="translate(-290.888 -180.607)" fill="#fff"/>
    <path id="Trazado_238" data-name="Trazado 238" d="M444.458,148.686a2.727,2.727,0,0,0-3.729,0l-1.91,1.926,3.732,3.764,1.91-1.926A2.685,2.685,0,0,0,444.458,148.686Z" transform="translate(-400.374 -134.194)" fill="#fff"/>
    <path id="Trazado_239" data-name="Trazado 239" d="M503.215,198.627c.035-.035.034-.034,0,0Z" transform="translate(-459.128 -180.266)" fill="#fff"/>
  </g>
</svg>
