<svg xmlns="http://www.w3.org/2000/svg" viewBox="0 0 126 47.417">
  <g id="Grupo_276" data-name="Grupo 276" transform="translate(-133.227 -181.228)">
    <path id="Trazado_451" data-name="Trazado 451" d="M172.7,207.323a21.031,21.031,0,0,0-6.8-15.091,2.82,2.82,0,0,1,.658-.675,2.863,2.863,0,0,1,.25-.162.369.369,0,0,0-.1-.678,3.138,3.138,0,0,0-.527-.083,3.213,3.213,0,0,0-1.723.367q-.841-.654-1.747-1.225a4.123,4.123,0,0,1,1.023-1.045,4.048,4.048,0,0,1,.356-.226.366.366,0,0,0-.109-.682,5.078,5.078,0,0,0-3.567.692,21.375,21.375,0,0,0-2.471-.983,3.5,3.5,0,0,1,.517-1.247,3.426,3.426,0,0,1,1.157-1.07.393.393,0,0,0-.176-.734,6.592,6.592,0,0,0-5.266,2.19,21.25,21.25,0,0,0-3.632-.175A8.042,8.042,0,0,1,151.988,184a7.893,7.893,0,0,1,2.934-2.064.37.37,0,0,0-.161-.709h0a22.66,22.66,0,0,0-12.513,4.069c-.091,0-.181-.007-.273-.007a6.9,6.9,0,0,0-6.739,8.367,23.53,23.53,0,0,0-2,6.631,1.281,1.281,0,0,0,.728,1.349,15.985,15.985,0,0,0,8.669,1.446,15.648,15.648,0,0,0,5.581-1.789.671.671,0,0,0-.039-1.2l-.7-.331a14.591,14.591,0,0,1,2.865-.5,2.183,2.183,0,0,1-.2,1.427,3.356,3.356,0,0,1-.707.761c-.969.895-1.541,1.024-1.9,1.74a2.21,2.21,0,0,0-.208.652,12.81,12.81,0,0,0,4.506,24.8c.376,0,.748-.019,1.116-.051l-.131.051C164.534,228.409,172.87,218.792,172.7,207.323Zm-12.449-3.588a2.652,2.652,0,0,1-1.413.217,17.293,17.293,0,0,0-1.9.134,12.643,12.643,0,0,0-1.3-.485,2.78,2.78,0,0,0-.117-.628,3.528,3.528,0,0,0-1.359-1.74c-.844-.633-1.257-.51-1.631-1.033a1.8,1.8,0,0,1-.31-.958,14.794,14.794,0,0,1,8.805,3.531A1.912,1.912,0,0,1,160.251,203.735Zm-.489,22.181-.072.028a12.8,12.8,0,0,0,1.757-18.563,2.87,2.87,0,0,0,.218-.982c.023-.661-.209-1.024-.054-1.631a2.126,2.126,0,0,1,.533-.932,14.474,14.474,0,0,1,2.62,3.868A14.708,14.708,0,0,1,159.762,225.916Z" transform="translate(0 0)" fill="#3c3c3c"/>
    <g id="Grupo_274" data-name="Grupo 274" transform="translate(178.393 181.233)">
      <path id="Trazado_452" data-name="Trazado 452" d="M339.5,197V181.25h3.341a2.736,2.736,0,0,1,2.381,1.025,5.138,5.138,0,0,1,.74,3.021l.009,7.108a6.4,6.4,0,0,1-.744,3.491,2.744,2.744,0,0,1-2.461,1.11Zm2.267-1.862h.744a1.009,1.009,0,0,0,.909-.43,3.08,3.08,0,0,0,.283-1.575l-.009-7.779a3.9,3.9,0,0,0-.283-1.746,1.019,1.019,0,0,0-.977-.519h-.668Z" transform="translate(-339.499 -181.25)" fill="#3b3b3b"/>
      <path id="Trazado_453" data-name="Trazado 453" d="M381.348,189.6l-.727-.036V197h-2.266V181.25H382.1a2.609,2.609,0,0,1,1.742.5,2.4,2.4,0,0,1,.757,1.388,12.051,12.051,0,0,1,.182,2.327,6.42,6.42,0,0,1-.288,2.189,1.64,1.64,0,0,1-1.066,1.011,1.417,1.417,0,0,1,1.074,1.1,16.284,16.284,0,0,1,.3,3.988,27.486,27.486,0,0,0,.084,3.254h-2.266q-.085-.179-.085-5.648a2.735,2.735,0,0,0-.237-1.392A1.13,1.13,0,0,0,381.348,189.6Zm-.719-1.9h.905a.872.872,0,0,0,.638-.206,1.276,1.276,0,0,0,.287-.707,10.6,10.6,0,0,0,.08-1.531v-.1a4.36,4.36,0,0,0-.2-1.674q-.2-.394-.939-.394h-.77Z" transform="translate(-369.846 -181.25)" fill="#3b3b3b"/>
      <path id="Trazado_454" data-name="Trazado 454" d="M417.364,197V181.25h4.99v2.068H419.63V187.9h2.588v2.023H419.63v5.013h2.825V197Z" transform="translate(-400.314 -181.25)" fill="#3b3b3b"/>
      <path id="Trazado_455" data-name="Trazado 455" d="M445.791,197l2.123-15.754h2.994L453.166,197h-2.114l-.355-2.811h-2.4L447.973,197Zm4.668-4.735-1-7.913h-.034l-.914,7.913Z" transform="translate(-422.517 -181.25)" fill="#3b3b3b"/>
      <path id="Trazado_456" data-name="Trazado 456" d="M486.577,197V181.25h2.816l2.114,11.511L493.5,181.25h2.833V197h-2.021v-5.872l.084-5.389-2,11.189h-1.8L488.5,185.744l.085,5.389V197Z" transform="translate(-454.372 -181.25)" fill="#3b3b3b"/>
      <path id="Trazado_457" data-name="Trazado 457" d="M538.255,197l2.123-15.754h2.994L545.63,197h-2.114l-.355-2.811h-2.4L540.437,197Zm4.668-4.735-1-7.913h-.034l-.913,7.913Z" transform="translate(-494.735 -181.25)" fill="#fbbb00"/>
      <path id="Trazado_458" data-name="Trazado 458" d="M576.689,197l-1.818-15.754h2.03l1.091,11.225,1.387-11.225h1.827l1.4,11.225.964-11.225H585.6L583.895,197h-2.258l-1.319-10.473L578.947,197Z" transform="translate(-523.333 -181.25)" fill="#fbbb00"/>
      <path id="Trazado_459" data-name="Trazado 459" d="M627.129,197l2.123-15.754h2.994L634.5,197h-2.115l-.355-2.811h-2.4L629.311,197Zm4.668-4.735-1-7.913h-.034l-.913,7.913Z" transform="translate(-564.148 -181.25)" fill="#fbbb00"/>
      <path id="Trazado_460" data-name="Trazado 460" d="M664.308,197v-6.293l-2.495-9.462h2.165l1.472,5.89h.034l1.311-5.89h2.157l-2.376,9.462V197Z" transform="translate(-591.238 -181.25)" fill="#fbbb00"/>
      <path id="Trazado_461" data-name="Trazado 461" d="M699.7,245.346v-2.2h1.9v2.2Z" transform="translate(-620.83 -229.591)" fill="#fbbb00"/>
    </g>
    <g id="Grupo_275" data-name="Grupo 275" transform="translate(178.426 200.851)">
      <path id="Trazado_462" data-name="Trazado 462" d="M342.878,298.444V274.485h-3.226v-3.638h10.507v3.638h-3.1v23.959Z" transform="translate(-339.652 -270.847)" fill="#3b3b3b"/>
      <path id="Trazado_463" data-name="Trazado 463" d="M403.765,285.476l-1.347-.063v13.03h-4.2v-27.6h6.937a5.025,5.025,0,0,1,3.226.87,4.151,4.151,0,0,1,1.4,2.43,19.986,19.986,0,0,1,.337,4.077,10.693,10.693,0,0,1-.532,3.834,2.972,2.972,0,0,1-1.973,1.772,2.558,2.558,0,0,1,1.989,1.928,27.021,27.021,0,0,1,.564,6.986,45.465,45.465,0,0,0,.157,5.7h-4.2q-.157-.313-.157-9.894a4.572,4.572,0,0,0-.438-2.438A2.155,2.155,0,0,0,403.765,285.476Zm-1.331-3.324h1.676a1.675,1.675,0,0,0,1.182-.361,2.174,2.174,0,0,0,.533-1.239,17.542,17.542,0,0,0,.149-2.681V277.7a7.261,7.261,0,0,0-.376-2.932q-.376-.69-1.738-.69h-1.425Z" transform="translate(-385.397 -270.847)" fill="#3b3b3b"/>
      <path id="Trazado_464" data-name="Trazado 464" d="M464.73,298.444l3.93-27.6H474.2l4.181,27.6H474.47l-.658-4.923h-4.447l-.595,4.923Zm8.644-8.295-1.848-13.861h-.063l-1.691,13.861Z" transform="translate(-437.342 -270.847)" fill="#3b3b3b"/>
      <path id="Trazado_465" data-name="Trazado 465" d="M536.657,298.444l-4.275-27.6h3.993l1.8,12.466,1.112,8.781h.109l.955-8.781,1.5-12.466h3.915l-3.93,27.6Z" transform="translate(-490.181 -270.847)" fill="#3b3b3b"/>
      <path id="Trazado_466" data-name="Trazado 466" d="M606.9,298.444v-27.6h9.239v3.622H611.1V282.5h4.791v3.544H611.1v8.781h5.23v3.622Z" transform="translate(-548.382 -270.847)" fill="#3b3b3b"/>
      <path id="Trazado_467" data-name="Trazado 467" d="M665.254,298.444v-27.6h4.2v24.022h5.308v3.575Z" transform="translate(-593.959 -270.847)" fill="#3b3b3b"/>
    </g>
    <circle id="Elipse_39" data-name="Elipse 39" cx="4.927" cy="4.927" r="4.927" transform="translate(137.048 187.26)" fill="#fff"/>
    <circle id="Elipse_40" data-name="Elipse 40" cx="0.985" cy="0.985" r="0.985" transform="translate(142.96 193.172)" fill="#3c3c3c"/>
    <path id="Trazado_468" data-name="Trazado 468" d="M201.043,289.778a10.792,10.792,0,0,0-4.8,1.122l0,.018a1.032,1.032,0,0,0,.335.391c.241.163.425.118.643.2.189.067.342.2.755.95.521.944.568,1.253.755,1.258.167,0,.347-.323.7-.978.339-.631.282-.656.419-.783.4-.369.811-.082,1.7-.363a2.426,2.426,0,0,0,1.062-.587,2.056,2.056,0,0,0,.529-1.019A10.871,10.871,0,0,0,201.043,289.778Z" transform="translate(-49.216 -84.782)" fill="#fbbb00"/>
    <path id="Trazado_469" data-name="Trazado 469" d="M220.314,297.03h0l-.034,0a3.6,3.6,0,0,0-1.9.7.8.8,0,0,0-.335.447c-.074.352.252.528.335,1.09.018.124.088.6-.14.755-.1.071-.245.066-.727-.112-.835-.308-.926-.482-1.286-.5-.5-.029-1.012.265-1.006.475s.514.183,1.034.643c.39.345.708.891.559,1.118-.123.188-.453-.017-.922.2-.312.142-.7.473-.643.782s.545.561.95.5c.532-.076.548-.626,1.23-.95.53-.253,1.237-.26,1.425.028.2.31-.246.882-.112.978.115.082.384-.379.894-.475.381-.071.534.128,1.313.391.912.307,1.258.221,1.314.419.086.306-.6.983-1.4,1.062-.825.082-1.091-.551-2.263-.866a3.957,3.957,0,0,0-2.208,0,4.115,4.115,0,0,0-2.375,2.515c-.09.244-.8,2.262.14,3.214a4.3,4.3,0,0,0,2.4.782c.837.117,1.178.034,1.453.335.3.328.07.619.224,1.76.03.227.151.757.391,1.817.194.856.221.923.2,1.118-.073.567-.4.8-.5,1.233a10.78,10.78,0,0,0,2.522-1.3l.01-.007q.226-.158.444-.327l.012-.009q.218-.17.427-.35l.007-.006q.212-.183.414-.377c.02-.437.022-.814.017-1.115-.018-1.1-.127-1.447.14-1.816.468-.65,1.4-.411,1.537-.894.076-.273-.2-.418-.671-1.37-.286-.581-.427-.876-.335-1.09.218-.511,1.264-.258,1.425-.7.089-.242-.177-.457-.922-1.593-.508-.774-.541-.915-.5-.95.081-.075.464.341,1.118.643.513.237,1.148,1.716,1.5,1.811.017-.247.028-.5.028-.747A10.832,10.832,0,0,0,220.314,297.03Z" transform="translate(-62.835 -90.444)" fill="#fbbb00"/>
    <path id="Trazado_470" data-name="Trazado 470" d="M168.555,306.688c-.006.061-.013.123-.018.184h0a8.045,8.045,0,0,0,.4,1.681,3.614,3.614,0,0,0,1.258,2.012c.362.228.683.276.894.643a1.827,1.827,0,0,1,.112,1.062,5.839,5.839,0,0,0,.252,1.984c.338.905.978.85,1.286,1.732a3.571,3.571,0,0,1,.154.617c.156.115.315.226.477.333l.084.054q.208.134.422.259l.1.056q.219.125.444.239l.078.04c.175.087.353.171.533.249h0c.071-.1.145-.2.227-.31.459-.592.7-.725,1.229-1.4.646-.815,1.045-1.318.894-1.733-.133-.366-.565-.308-1.341-.727a6.432,6.432,0,0,1-1.788-1.593c-.989-1.1-1.1-1.647-1.7-1.733-.515-.073-.845.257-1.146.028-.258-.2-.085-.489-.335-1.062-.142-.324-.236-.319-.81-1.062-.679-.879-.643-1.01-.615-1.062.1-.193.6-.235.95-.028.6.36.438,1.3.81,1.369.219.042.526-.235.587-.531.1-.508-.59-.709-.671-1.341-.113-.882,1.07-1.814,1.285-1.984.592-.467,1.076-.578,1.2-1.09.084-.34-.03-.695.112-.754s.255.221.531.251c.34.037.777-.313.755-.587-.029-.353-.84-.78-1.453-.866-.1-.014-.33-.038-.419-.2a.376.376,0,0,1,.028-.391c.238-.3.94.1,1.146-.168.119-.155.017-.463-.112-.643-.249-.349-.623-.254-1.006-.615a1.4,1.4,0,0,1-.335-.5l-.043-.022A10.827,10.827,0,0,0,168.555,306.688Z" transform="translate(-27.579 -92.051)" fill="#fbbb00"/>
  </g>
</svg>
