<svg xmlns="http://www.w3.org/2000/svg" viewBox="0 0 428.39 514.55"><defs><style>.cls-1{fill:#332f30;}.cls-2{fill:#fff;}.cls-3{fill:#f2c612;}</style></defs><title>logo</title><g id="Capa_2" data-name="Capa 2"><g id="Capa_1-2" data-name="Capa 1"><path class="cls-1" d="M428.36,283.18c-.95-64.17-29.29-122.44-73.8-163.77a30.79,30.79,0,0,1,7.13-7.32,32.07,32.07,0,0,1,2.72-1.76,4,4,0,0,0-1.12-7.36,34.16,34.16,0,0,0-5.73-.91,34.91,34.91,0,0,0-18.69,4q-9.12-7.1-18.95-13.29A44.56,44.56,0,0,1,331,81.42,42.63,42.63,0,0,1,334.88,79a4,4,0,0,0-1.18-7.4A55.17,55.17,0,0,0,295,79.07,232.33,232.33,0,0,0,268.18,68.4a38,38,0,0,1,5.61-13.53,37.1,37.1,0,0,1,12.55-11.61,4.26,4.26,0,0,0-1.9-8,71.42,71.42,0,0,0-28.34,4.23,72.2,72.2,0,0,0-28.81,19.52,231.77,231.77,0,0,0-39.41-1.89,87.23,87.23,0,0,1,15.71-27.07c9.15-10.69,20.9-17.74,31.84-22.4A4,4,0,0,0,233.68,0c-16.24.23-77.25,2.72-135.8,44.15-1,0-2-.07-2.95-.07A74.84,74.84,0,0,0,21.8,134.87a255.3,255.3,0,0,0-21.65,72,13.91,13.91,0,0,0,7.9,14.64c21.51,10,54.52,20.45,94.07,15.69a169.49,169.49,0,0,0,60.56-19.42,7.28,7.28,0,0,0-.41-13l-7.64-3.59a158,158,0,0,1,31.08-5.46,23.68,23.68,0,0,1-2.18,15.49c-1.27,2.35-3.41,4.32-7.67,8.25-10.51,9.71-16.73,11.11-20.65,18.88a24.28,24.28,0,0,0-2.26,7.07,139,139,0,0,0,48.9,269.14c4.09,0,8.12-.21,12.12-.56l-1.42.56C339.74,512,430.2,407.64,428.36,283.18m-135.1-38.94c-4.44,2.59-8.62,2.27-15.34,2.36a188.5,188.5,0,0,0-20.66,1.46,138.43,138.43,0,0,0-14.06-5.26,29.77,29.77,0,0,0-1.26-6.82c-3.1-10-10.76-15.88-14.75-18.88-9.16-6.87-13.64-5.53-17.7-11.21a19.31,19.31,0,0,1-3.36-10.39,160.57,160.57,0,0,1,95.55,38.32c-1.57,3.82-4.11,7.9-8.42,10.42M288,484.94l-.78.3a138.87,138.87,0,0,0,19.06-201.43,31.26,31.26,0,0,0,2.37-10.66c.25-7.18-2.27-11.11-.59-17.7a23,23,0,0,1,5.79-10.11,157.16,157.16,0,0,1,28.43,42C374.5,357.1,351.54,441.07,288,484.94"/><path class="cls-2" d="M148.39,118.93a53.46,53.46,0,1,0-53.46,53.46,53.47,53.47,0,0,0,53.46-53.46"/><path class="cls-1" d="M127,140.31A10.7,10.7,0,1,0,116.31,151,10.7,10.7,0,0,0,127,140.31"/><path class="cls-3" d="M201.85,257.93a117,117,0,0,0-52.12,12.18l0,.19a11.11,11.11,0,0,0,3.63,4.25c2.62,1.77,4.61,1.28,7,2.12,2,.73,3.71,2.21,8.19,10.31,5.66,10.25,6.16,13.6,8.19,13.65,1.81.05,3.76-3.5,7.58-10.61,3.67-6.85,3.05-7.12,4.55-8.5,4.35-4,8.79-.89,18.49-3.94,2.9-.91,7.62-2.4,11.53-6.36a22.5,22.5,0,0,0,5.75-11.07,118.84,118.84,0,0,0-22.79-2.22"/><path class="cls-3" d="M263.18,275.18h0l-.37,0c-5.07.5-13.9,2-20.62,7.58-2.81,2.3-3.42,3.8-3.64,4.85-.81,3.82,2.73,5.74,3.64,11.83.2,1.34,1,6.46-1.52,8.19-1.11.77-2.65.71-7.89-1.22-9.05-3.33-10-5.23-13.94-5.46-5.4-.31-11,2.88-10.92,5.16s5.58,2,11.22,7c4.23,3.74,7.68,9.67,6.07,12.13-1.34,2.05-4.93-.19-10,2.13-3.39,1.54-7.55,5.13-7,8.49s5.91,6.08,10.3,5.46c5.77-.83,6-6.79,13.34-10.32,5.76-2.73,13.43-2.82,15.47.31,2.2,3.36-2.67,9.57-1.21,10.61,1.25.89,4.17-4.11,9.71-5.15,4.13-.78,5.79,1.4,14.25,4.25,9.89,3.33,13.65,2.39,14.25,4.54.93,3.32-6.56,10.67-15.16,11.53-8.95.89-11.84-6-24.57-9.4-3.14-.85-13.29-3.46-24,0-17,5.48-24.09,22.68-25.78,27.29-1,2.65-8.71,24.54,1.52,34.87,5.58,5.64,15.74,7.05,26.08,8.49,9.08,1.27,12.79.37,15.77,3.64,3.24,3.56.76,6.72,2.42,19.11.33,2.46,1.64,8.21,4.25,19.71,2.11,9.29,2.39,10,2.12,12.13-.79,6.15-4.3,8.69-5.42,13.38A117.19,117.19,0,0,0,269,472.1l.11-.08q2.46-1.71,4.81-3.55l.13-.1c1.58-1.23,3.12-2.49,4.63-3.8l.08-.07q2.29-2,4.49-4.08c.22-4.75.24-8.83.19-12.1-.19-11.95-1.38-15.7,1.52-19.71,5.07-7.06,15.22-4.47,16.67-9.71.83-3-2.19-4.53-7.27-14.86-3.1-6.3-4.63-9.5-3.64-11.83,2.36-5.54,13.71-2.79,15.47-7.58,1-2.63-1.93-4.95-10-17.28-5.5-8.4-5.87-9.93-5.45-10.31.88-.82,5,3.7,12.13,7,5.56,2.57,12.45,18.62,16.32,19.65.18-2.68.31-5.38.31-8.11a117.54,117.54,0,0,0-56.29-100.37"/><path class="cls-3" d="M84.1,362.55c-.07.67-.14,1.34-.2,2h0a87.5,87.5,0,0,0,4.33,18.24c4,10.55,6.7,17.46,13.65,21.83,3.93,2.48,7.42,3,9.7,7,2,3.49,1.38,6.67,1.22,11.52-.09,2.77-.27,13.51,2.73,21.53,3.66,9.83,10.61,9.23,13.94,18.8a38.62,38.62,0,0,1,1.68,6.7c1.68,1.25,3.42,2.45,5.17,3.61l.91.58c1.51,1,3,1.91,4.58,2.81l1.06.61q2.37,1.35,4.82,2.6l.83.43c1.91.95,3.83,1.85,5.79,2.7.77-1.1,1.57-2.21,2.46-3.35,5-6.43,7.56-7.88,13.34-15.17,7-8.84,11.34-14.3,9.7-18.8-1.43-4-6.13-3.35-14.55-7.89-7.59-4.09-12-9-19.41-17.28-10.73-12-11.88-17.87-18.5-18.8-5.58-.79-9.16,2.78-12.43.3-2.8-2.12-.92-5.31-3.64-11.52-1.54-3.52-2.56-3.46-8.79-11.53-7.37-9.53-7-11-6.68-11.52,1.13-2.09,6.57-2.55,10.32-.3,6.51,3.9,4.75,14.09,8.79,14.86,2.37.45,5.71-2.56,6.37-5.77,1.13-5.51-6.4-7.69-7.28-14.55-1.22-9.57,11.62-19.69,13.95-21.53,6.42-5.07,11.67-6.27,13-11.83.91-3.68-.33-7.54,1.21-8.19S145,323,148,323.35c3.68.4,8.43-3.4,8.18-6.37-.31-3.83-9.12-8.47-15.77-9.4-1.1-.15-3.58-.41-4.54-2.12a4.07,4.07,0,0,1,.3-4.25c2.57-3.27,10.2,1.08,12.43-1.82,1.29-1.67.18-5-1.21-7-2.71-3.79-6.77-2.76-10.92-6.67a15.17,15.17,0,0,1-3.64-5.46l-.46-.25A117.51,117.51,0,0,0,84.1,362.55"/></g></g></svg>