<svg xmlns="http://www.w3.org/2000/svg" width="47.861" height="50" viewBox="0 0 47.861 50"><path d="M307.662,8.172A4.181,4.181,0,0,0,306.43,5.2l-3.966-3.966a4.3,4.3,0,0,0-3-1.232h-.241V8.413h8.44V8.172Z" transform="translate(-271.251)" fill="#fff"/><path d="M32.728,37.648,28.269,39.2l-.679.039a3.475,3.475,0,0,1-2.845-1.526,3.81,3.81,0,0,1-.477-3.3l1.339-4.189a5.928,5.928,0,0,1,1.347-2.286l9.494-9.878V11.719H26.6a1.4,1.4,0,0,1-1.357-1.465V0H4.207A4.308,4.308,0,0,0,0,4.395V45.605A4.308,4.308,0,0,0,4.207,50h28a4.339,4.339,0,0,0,4.244-4.395V34.673l-1.541,1.571A5.543,5.543,0,0,1,32.728,37.648Zm-25.717-23H26.6a1.466,1.466,0,0,1,0,2.93H7.011a1.466,1.466,0,0,1,0-2.93Zm0,5.859H20.987a1.466,1.466,0,0,1,0,2.93H7.011a1.466,1.466,0,0,1,0-2.93Zm0,5.859H20.987a1.466,1.466,0,0,1,0,2.93H7.011a1.466,1.466,0,0,1,0-2.93Zm-1.4,7.324a1.434,1.434,0,0,1,1.4-1.465H20.987a1.466,1.466,0,0,1,0,2.93H7.011A1.434,1.434,0,0,1,5.609,33.691ZM26.6,43.945H18.183a1.466,1.466,0,0,1,0-2.93H26.6a1.466,1.466,0,0,1,0,2.93Z" fill="#fff"/><path d="M288.587,327.354l3.658-1.222-3.325-3.325-1.22,3.66A.7.7,0,0,0,288.587,327.354Z" transform="translate(-260.772 -291.141)" fill="#fff"/><path d="M318.82,208.542l3.983,3.983,9.234-9.235-3.982-3.982Z" transform="translate(-289.017 -179.526)" fill="#fff"/><path d="M444.836,148.728a2.928,2.928,0,0,0-3.979,0l-2.038,2.038,3.982,3.982,2.038-2.038A2.822,2.822,0,0,0,444.836,148.728Z" transform="translate(-397.799 -133.399)" fill="#fff"/><path d="M503.215,198.629h0Z" transform="translate(-456.175 -179.206)" fill="#fff"/></svg>