<svg id="book" xmlns="http://www.w3.org/2000/svg" width="16" height="14.063" viewBox="0 0 16 14.063">
  <g id="Grupo_221" data-name="Grupo 221" transform="translate(10.375 10.312)">
    <path id="Trazado_403" data-name="Trazado 403" d="M334.813,360.992v3.281a.469.469,0,0,1-.8.332l-.606-.606-.606.606a.469.469,0,0,1-.8-.332v-3.281Z" transform="translate(-332 -360.992)" fill="gray"/>
  </g>
  <g id="Grupo_223" data-name="Grupo 223">
    <path id="Trazado_404" data-name="Trazado 404" d="M276.156,40.367V31.461a.469.469,0,0,0-.469-.469h-3.281A1.408,1.408,0,0,0,271,32.4v8.446a2.329,2.329,0,0,1,1.406-.477Z" transform="translate(-262.531 -30.992)" fill="gray"/>
    <path id="Trazado_405" data-name="Trazado 405" d="M76,40.367V31.461a.469.469,0,0,1,.469-.469H79.75A1.408,1.408,0,0,1,81.156,32.4v8.446a2.329,2.329,0,0,0-1.406-.477Z" transform="translate(-73.625 -30.992)" fill="gray"/>
    <g id="Grupo_222" data-name="Grupo 222" transform="translate(0 0.937)">
      <path id="Trazado_406" data-name="Trazado 406" d="M9.437,70.437a1.4,1.4,0,0,0-.772.634.469.469,0,0,1-.405.233H7.74a.469.469,0,0,1-.405-.233,1.39,1.39,0,0,0-1.21-.7H1.906a.469.469,0,0,1-.469-.469V60.992H.469A.469.469,0,0,0,0,61.461V71.773a.469.469,0,0,0,.469.469H9.437Z" transform="translate(0 -60.992)" fill="gray"/>
      <path id="Trazado_407" data-name="Trazado 407" d="M453.406,60.992h-.969V69.9a.469.469,0,0,1-.437.467v1.877h1.406a.469.469,0,0,0,.469-.469V61.461A.469.469,0,0,0,453.406,60.992Z" transform="translate(-437.875 -60.992)" fill="gray"/>
    </g>
  </g>
</svg>
