<svg id="camara_tomar_fotos" data-name="camara tomar fotos" xmlns="http://www.w3.org/2000/svg" width="32.331" height="25.865" viewBox="0 0 32.331 25.865">
  <g id="Grupo_656" data-name="Grupo 656" transform="translate(16.165 9.699)">
    <g id="Grupo_655" data-name="Grupo 655">
      <path id="Trazado_855" data-name="Trazado 855" d="M260.85,204.8a4.421,4.421,0,0,0-2.263.647,1.28,1.28,0,0,1,.808,1.293,1.527,1.527,0,0,1-1.617,1.617,1.648,1.648,0,0,1-1.293-.808,4.475,4.475,0,0,0-.485,2.1,4.85,4.85,0,1,0,9.7,0A4.863,4.863,0,0,0,260.85,204.8Z" transform="translate(-256 -204.8)" fill="#444242"/>
    </g>
  </g>
  <g id="Grupo_658" data-name="Grupo 658" transform="translate(0 0)">
    <g id="Grupo_657" data-name="Grupo 657">
      <path id="Trazado_856" data-name="Trazado 856" d="M30.714,54.433H29.1l-1.455-2.748c0-.323-.323-.485-.647-.485H18.267c-.323,0-.647.162-.647.485l-1.455,2.748H8.083v-.808a.764.764,0,0,0-.808-.808H4.041a.764.764,0,0,0-.808.808v.808H1.617A1.527,1.527,0,0,0,0,56.05v19.4a1.527,1.527,0,0,0,1.617,1.617h29.1a1.527,1.527,0,0,0,1.617-1.617V56.05A1.527,1.527,0,0,0,30.714,54.433ZM4.85,60.9a1.62,1.62,0,0,1-1.617-1.617A1.527,1.527,0,0,1,4.85,57.666a1.617,1.617,0,0,1,0,3.233ZM21.015,73.832A8.083,8.083,0,1,1,29.1,65.749,8,8,0,0,1,21.015,73.832Z" transform="translate(0 -51.2)" fill="#444242"/>
    </g>
  </g>
</svg>
