<svg xmlns="http://www.w3.org/2000/svg" width="19.031" height="19.03" viewBox="0 0 19.031 19.03">
  <path id="Trazado_416" data-name="Trazado 416" d="M2665.133,2649.759l-1.232-2.145a.631.631,0,0,0-.841-.157l-1.233.709-.006,0a8.308,8.308,0,0,0-1.9-1.483l.367-1.382a.572.572,0,0,0-.4-.7l-2.389-.646a.571.571,0,0,0-.7.4l-.369,1.372,0,0a6.507,6.507,0,0,0-2.375.292l-.708-1.234a.614.614,0,0,0-.813-.225l-2.146,1.232c-.274.158-.247.468-.089.742l.708,1.234,0,.005a6.755,6.755,0,0,0-1.53,1.927l-1.427-.341a.573.573,0,0,0-.7.4l-.646,2.389a.575.575,0,0,0,.405.7l1.375.375.01.009a6.659,6.659,0,0,0,.3,2.4l-1.234.709a.482.482,0,0,0-.156.714l1.232,2.146a.45.45,0,0,0,.675.188l1.234-.708.006,0a6.627,6.627,0,0,0,1.914,1.506l-.352,1.405a.572.572,0,0,0,.405.7l2.392.644a.583.583,0,0,0,.71-.407l.386-1.382.031-.023a6.958,6.958,0,0,0,2.443-.332l.708,1.234c.158.274.373.413.647.256l2.146-1.233a.578.578,0,0,0,.255-.772l-.708-1.234,0-.006a6.36,6.36,0,0,0,1.459-1.887l1.359.379a.574.574,0,0,0,.7-.4l.645-2.391a.58.58,0,0,0-.407-.707l-1.378-.381-.017-.021a6.822,6.822,0,0,0-.319-2.42l1.234-.709C2665.086,2650.346,2665.291,2650.033,2665.133,2649.759Zm-11.732,1.471a3.57,3.57,0,0,1,2.626-1.354c.058,0,.115,0,.172,0h.087c.057,0,.115,0,.172.008s.113.01.17.016l.085.011c.113.017.225.039.336.066l.083.021c.054.015.109.031.164.049l.081.027c.054.019.107.039.16.06l.08.033.11.05.123.061q.076.039.15.083c.066.039.131.079.2.122.032.021.063.043.094.066.047.034.093.069.138.105.068.054.135.11.2.17.043.041.085.081.125.123a3.581,3.581,0,0,1,1.006,2.231c.006.086.009.172.009.258q0,.086,0,.172c0,.057-.008.114-.013.171a3.458,3.458,0,0,1-.066.423c-.012.056-.026.111-.041.166-.022.083-.047.165-.076.245-.018.054-.038.108-.06.16-.01.027-.022.053-.033.08-.022.052-.047.1-.071.155q-.057.116-.122.228c-.029.05-.058.1-.09.147a3.575,3.575,0,0,1-2.555,1.594c-.057.007-.115.013-.173.017a3.592,3.592,0,0,1-.515,0c-.057,0-.114-.01-.171-.017l-.084-.012q-.127-.019-.253-.046a3.556,3.556,0,0,1-2.794-3.661c0-.066.008-.132.015-.2a3.737,3.737,0,0,1,.086-.486,3.54,3.54,0,0,1,.153-.47c.01-.026.022-.053.033-.079q.034-.078.071-.156c.025-.051.052-.1.079-.152a3.3,3.3,0,0,1,.181-.294c.021-.031.043-.062.065-.092Z" transform="translate(-2646.687 -2643.935)" fill="#ffffff"/>
</svg>
