<svg xmlns="http://www.w3.org/2000/svg" width="10.825" height="10.756" viewBox="0 0 10.825 10.756">
  <path id="cookies" d="M-1693.416,125.253a1.484,1.484,0,0,1-.2-.242,2.094,2.094,0,0,1-2.1-.456,1.971,1.971,0,0,1-.556-1.465,1.42,1.42,0,0,1-.481-.195,1.8,1.8,0,0,1-.706-1.764,5.414,5.414,0,0,0-4.545,5.343,5.412,5.412,0,0,0,5.413,5.413,5.413,5.413,0,0,0,5.413-5.413,5.466,5.466,0,0,0-.085-.959A1.944,1.944,0,0,1-1693.416,125.253Zm-7.361-.932a.454.454,0,0,1,.408.489.454.454,0,0,1-.408.489.454.454,0,0,1-.407-.489A.454.454,0,0,1-1700.777,124.321Zm.016,4.369c-.27,0-.489-.146-.489-.326s.219-.326.489-.326.489.146.489.326S-1700.491,128.69-1700.761,128.69Zm1.924-1.63c-.108,0-.2-.182-.2-.408s.088-.408.2-.408.2.182.2.408S-1698.729,127.06-1698.837,127.06Zm.2-4.3c-.378,0-.685-.153-.685-.342s.307-.342.685-.342.685.153.685.342S-1698.263,122.756-1698.642,122.756Zm1.614,7.7c-.3,0-.538-.372-.538-.831s.24-.832.538-.832.538.372.538.832S-1696.73,130.451-1697.028,130.451Zm.945-3.913c-.333,0-.6-.175-.6-.391s.27-.391.6-.391.6.175.6.391S-1695.749,126.538-1696.082,126.538Zm2.462,1.6c-.27,0-.489-.139-.489-.31s.219-.31.489-.31.489.139.489.31S-1693.35,128.136-1693.62,128.136Zm1.647-1.109c-.063,0-.114-.16-.114-.359s.051-.359.114-.359.114.16.114.359S-1691.91,127.027-1691.974,127.027Z" transform="translate(1702 -121.13)" fill="gray"/>
</svg>
