<svg id="guardar" xmlns="http://www.w3.org/2000/svg" width="34.24" height="34.24" viewBox="0 0 34.24 34.24">
  <g id="Grupo_538" data-name="Grupo 538" transform="translate(0 0)">
    <g id="Grupo_537" data-name="Grupo 537">
      <path id="Trazado_577" data-name="Trazado 577" d="M256.779,30.672h3.113a.778.778,0,0,0,.778-.778V22.11a.778.778,0,0,0-.778-.778h-3.113a.778.778,0,0,0-.778.778v7.783A.778.778,0,0,0,256.779,30.672Z" transform="translate(-237.321 -18.189)" fill="#444242"/>
      <path id="Trazado_578" data-name="Trazado 578" d="M34.018,6.455,27.791.228a.778.778,0,0,0-1.329.551V10.9a3.117,3.117,0,0,1-3.113,3.112H9.342A3.117,3.117,0,0,1,6.227,10.9V.779A.778.778,0,0,0,5.448,0H3.113A3.117,3.117,0,0,0,0,3.112V31.126a3.117,3.117,0,0,0,3.113,3.113H31.127a3.117,3.117,0,0,0,3.113-3.113V7a.777.777,0,0,0-.223-.549ZM29.575,31.91a.778.778,0,0,1-.778.778H5.448a.778.778,0,0,1-.778-.778V17.9a.778.778,0,0,1,.778-.778H28.8a.778.778,0,0,1,.778.778Z" transform="translate(0 0)" fill="#444242"/>
      <line id="Línea_43" data-name="Línea 43" x2="22.284" transform="translate(5.571 0.711)" fill="none" stroke="#444242" stroke-width="0.5"/>
    </g>
  </g>
</svg>
