<svg xmlns="http://www.w3.org/2000/svg" width="30.587" height="29.574" viewBox="0 0 30.587 29.574"><defs><style>.a{fill:#fff;}</style></defs><path class="a" d="M41.292,1.561c1.348.612,1.442.855,1.742.855a.51.51,0,0,0,.265-.947A15.4,15.4,0,0,0,41.717.632a.51.51,0,1,0-.423.929Z" transform="translate(-20.1 -0.31)"/><path class="a" d="M12.087,9.486c-.255.363-2.711,3.9-3.287,4.726h.005l.413-.286c.011,0,.02-.02.031-.02l4.3-3c8.8-8.8,7.175-7.023,8.722-9.2a.694.694,0,0,0-.965-.97c-2.106,1.513-1.253.773-3.889,3.409a.005.005,0,0,0-.005.005c-3.424,3.424-2.211,2.21-5.328,5.333Z" transform="translate(-4.341 -0.325)"/><path class="a" d="M13.544,5.654,15.56,3.633,8.062.05,7.45.167C12.558,4.546,11.23,3.342,13.544,5.654Z" transform="translate(-3.68 -0.05)"/><path class="a" d="M6.508,22.11l-3.251.25-.327.327,2.669.73Z" transform="translate(-1.467 -10.851)"/><path class="a" d="M25.319,5.106a.51.51,0,1,0-.663.774A14.29,14.29,0,1,1,1.086,17.707a.512.512,0,0,0-1.021.069A15.311,15.311,0,1,0,25.319,5.106Z" transform="translate(-0.064 -2.456)"/><path class="a" d="M19.99,11.214c3.353,7.024,3.113,6.431,3.062,6.65l-.357,1.807a.51.51,0,0,1-.888.23c-5.011-5.956-3.99-4.71-5.369-6.089l-4.66,3.4-.265,3.476c-.021.249-.051.225-1.23,1.4a.51.51,0,0,1-.852-.225l-.669-2.45-1.332.975a11.641,11.641,0,0,0,2.286,4.986c1.082.071,1.7-.117,1.822-.347l.107-.214c.51-1,1.368-2.664,4.313-1.557,2.777,1.054,3.361,2.578,5.349,3.047,1.761.413,4.246.832,5,.954a11.98,11.98,0,0,0,1.21-1.123c-3.266-.577-3.935-2.092-4.027-3a3.4,3.4,0,0,1,2.138-3.3.481.481,0,0,0,.337-.276c.3-.762-.849-2.675-1.21-3.363-.5-.939-.561-2.389,1.893-3.945a3.155,3.155,0,0,0,1.337-1.618A11.73,11.73,0,0,0,24.6,7.84ZM19.158,21.87c-.688.539-1.716-.167-2.766-.444a1.753,1.753,0,0,1-1.485-1.4,4.8,4.8,0,0,1-.24-1.96c.352-2.133,2.751-2.138,2.751-.449,0,.89.88,1.475,1.546,2.394a2.246,2.246,0,0,1,.505,1.087A.827.827,0,0,1,19.158,21.87Z" transform="translate(-3.67 -3.864)"/><path class="a" d="M30.526,20.835l.122-.607c-3.382-7.069-2.654-5.553-3.588-7.5L25.05,14.746C27.435,17.131,26.292,15.895,30.526,20.835Z" transform="translate(-12.298 -6.259)"/><path class="a" d="M24.3,26.805a.24.24,0,0,0-.061-.194c-.086-.055-.545.121-.663.811a4.262,4.262,0,0,0,.383,1.919c.15.2.634.271.954.393a7.522,7.522,0,0,0,1.4.485c-.507-1.053-2.011-1.848-2.011-3.414Z" transform="translate(-11.576 -13.051)"/><path class="a" d="M12.13,29.7l.327-.327c.218-2.878.163-2.14.245-3.256l-1.3.908C11.652,27.961,11.484,27.345,12.13,29.7Z" transform="translate(-5.614 -12.815)"/><path class="a" d="M42.31,24.383c-1.2.378-3.419,3.693,2.353,4.415a11.727,11.727,0,0,0,.393-13.668,4.2,4.2,0,0,1-1.48,1.557c-2.184,1.388-1.7,2.307-1.541,2.613.447.893,1.774,2.917,1.255,4.216a1.485,1.485,0,0,1-.98.868Z" transform="translate(-20.045 -7.434)"/><path class="a" d="M21.382,41.255a9.727,9.727,0,0,0-2.73-1.613c-2.092-.791-2.537.066-3.047,1.062l-.117.23a2.065,2.065,0,0,1-1.827.888,11.738,11.738,0,0,0,14.52,1.7C23.391,42.684,23.092,42.577,21.382,41.255Z" transform="translate(-6.721 -19.284)"/></svg>