<svg id="experiencia" xmlns="http://www.w3.org/2000/svg" width="16" height="15.999" viewBox="0 0 16 15.999">
  <g id="Grupo_214" data-name="Grupo 214" transform="translate(10.993 6.359)">
    <g id="Grupo_213" data-name="Grupo 213">
      <path id="Trazado_397" data-name="Trazado 397" d="M356.475,205.283l-4.692-1.8v7.943l4.342,1.665a.49.49,0,0,0,.665-.457v-6.894A.49.49,0,0,0,356.475,205.283Z" transform="translate(-351.783 -203.484)" fill="gray"/>
    </g>
  </g>
  <g id="Grupo_216" data-name="Grupo 216" transform="translate(0 6.205)">
    <g id="Grupo_215" data-name="Grupo 215">
      <path id="Trazado_398" data-name="Trazado 398" d="M.665,198.617a.49.49,0,0,0-.665.457v6.894a.49.49,0,0,0,.314.457l4.692,1.8v-7.943Z" transform="translate(0 -198.584)" fill="gray"/>
    </g>
  </g>
  <g id="Grupo_218" data-name="Grupo 218" transform="translate(5.986 9.23)">
    <g id="Grupo_217" data-name="Grupo 217">
      <path id="Trazado_399" data-name="Trazado 399" d="M194.558,296.428a1.469,1.469,0,0,1-1.962,0,12.345,12.345,0,0,1-1.033-1.072v6.617l4.027-1.544v-5.073A12.369,12.369,0,0,1,194.558,296.428Z" transform="translate(-191.563 -295.356)" fill="gray"/>
    </g>
  </g>
  <g id="Grupo_220" data-name="Grupo 220" transform="translate(4.52)">
    <g id="Grupo_219" data-name="Grupo 219">
      <path id="Trazado_400" data-name="Trazado 400" d="M150.7,1.247a3.273,3.273,0,0,0-5.128,0c-1.236,1.522-1.22,3.467.045,5.625a12.584,12.584,0,0,0,2.192,2.709.49.49,0,0,0,.654,0,12.585,12.585,0,0,0,2.192-2.709C151.92,4.714,151.935,2.769,150.7,1.247Zm-1.284,4.142a1.81,1.81,0,1,1,0-2.56A1.8,1.8,0,0,1,149.416,5.389Z" transform="translate(-144.656 -0.008)" fill="gray"/>
    </g>
  </g>
</svg>
