<svg id="facebook" xmlns="http://www.w3.org/2000/svg" width="19.815" height="19.815" viewBox="0 0 19.815 19.815">
  <path id="Trazado_577" data-name="Trazado 577" d="M554.739,277.764a9.908,9.908,0,1,1,9.908-9.908A9.919,9.919,0,0,1,554.739,277.764Zm0-18.874a8.966,8.966,0,1,0,8.967,8.967A8.977,8.977,0,0,0,554.739,258.89Z" transform="translate(-544.831 -257.949)" fill="#fbbb00"/>
  <path id="Trazado_578" data-name="Trazado 578" d="M586.059,297.311l-.019-.136a1.854,1.854,0,0,1,.119-.818l.134.115c.3.244.048.562.114.837l-.114,0Z" transform="translate(-576.344 -287.32)" fill="#fbbb00"/>
  <path id="Trazado_579" data-name="Trazado 579" d="M586.4,299.046l-.186.462c-.083-.162-.532-.324,0-.488Z" transform="translate(-576.279 -289.356)" fill="#fbbb00"/>
  <path id="Trazado_580" data-name="Trazado 580" d="M586.114,300.411l.234,0,.115.36c-.128.084-.006.16.008.239l-.124.124a.234.234,0,0,0-.12.236C585.989,301.076,586.156,300.731,586.114,300.411Z" transform="translate(-576.386 -290.42)" fill="#fbbb00"/>
  <path id="Trazado_581" data-name="Trazado 581" d="M576.315,280.677v5.78a.151.151,0,0,0,.151.151h2.146a.151.151,0,0,0,.151-.151v-5.874h1.556a.151.151,0,0,0,.15-.138l.15-1.77a.15.15,0,0,0-.15-.163h-1.706v-1.256a.533.533,0,0,1,.533-.533h1.2a.151.151,0,0,0,.151-.15V274.8a.151.151,0,0,0-.151-.151h-2.027a2.153,2.153,0,0,0-2.153,2.153v1.706h-1.073a.151.151,0,0,0-.151.151v1.77a.151.151,0,0,0,.151.151h1.073Z" transform="translate(-567.971 -270.722)" fill="#fbbb00" fill-rule="evenodd"/>
</svg>
