<svg xmlns="http://www.w3.org/2000/svg" width="21.703" height="12.713" viewBox="0 0 21.703 12.713">
  <path id="Trazado_448" data-name="Trazado 448" d="M1601.537,42.774a3.979,3.979,0,0,0,.5-1.777c0-.057,0-.114,0-.169h0a4.1,4.1,0,0,0-4.147-4.058h-13.41a4.1,4.1,0,0,0-4.146,4.058h0a4.1,4.1,0,0,0,4.146,4.057h9.215v3.923c0,.8.834.864,1.379.318.523-.523,4.408-4.118,5.7-5.381.043-.041.086-.083.128-.126l.028-.028.022-.024.02-.021A3.583,3.583,0,0,0,1601.537,42.774Zm-12.1-1.909a1.758,1.758,0,1,1,1.759,1.758A1.759,1.759,0,0,1,1589.435,40.866Zm5.209,0a1.758,1.758,0,1,1,1.758,1.758A1.758,1.758,0,0,1,1594.644,40.866Zm-10.417,0a1.758,1.758,0,1,1,1.758,1.758A1.759,1.759,0,0,1,1584.226,40.866Z" transform="translate(-1580.342 -36.769)" fill="#444242"/>
</svg>
