<svg id="foro" xmlns="http://www.w3.org/2000/svg" width="16" height="14.147" viewBox="0 0 16 14.147">
  <path id="Trazado_84" data-name="Trazado 84" d="M637.022,336.374c-2.867,0-5.288,2.018-5.288,4.407a4.073,4.073,0,0,0,1.193,2.835.336.336,0,0,1,.083.143,2.74,2.74,0,0,1-.207,2.017,3.057,3.057,0,0,0,1.521-.9.34.34,0,0,1,.376-.086,6.847,6.847,0,0,0,2.322.4c2.8,0,5.085-1.977,5.085-4.407C642.107,338.256,639.729,336.374,637.022,336.374Zm-2.915,3.39a.339.339,0,1,1-.339.339A.339.339,0,0,1,634.107,339.764Zm5.627,2.712h-5.627a.339.339,0,1,1,0-.678h5.627a.339.339,0,0,1,0,.678Zm0-2.034h-4.271a.339.339,0,0,1,0-.678h4.271a.339.339,0,0,1,0,.678Z" transform="translate(-631.734 -331.628)" fill="gray"/>
  <path id="Trazado_85" data-name="Trazado 85" d="M654.247,332.387a4.074,4.074,0,0,0,1.193-2.835c0-2.389-2.422-4.407-5.288-4.407-2.676,0-4.876,1.8-5.071,4.077a6.327,6.327,0,0,1,2.523.668h5.463a.339.339,0,0,1,0,.678h-4.421a4.851,4.851,0,0,1,1.831,3.381,6.679,6.679,0,0,0,2-.391.339.339,0,0,1,.375.086,3.058,3.058,0,0,0,1.521.9,2.744,2.744,0,0,1-.207-2.017A.339.339,0,0,1,654.247,332.387Zm-6.807-3.852a.339.339,0,1,1,.339-.339A.339.339,0,0,1,647.44,328.536Zm5.627,0H648.8a.339.339,0,0,1,0-.678h4.271a.339.339,0,0,1,0,.678Z" transform="translate(-639.44 -325.146)" fill="gray"/>
</svg>
