<svg id="preguntas_frecuentes" data-name="preguntas frecuentes" xmlns="http://www.w3.org/2000/svg" width="22" height="22" viewBox="0 0 22 22">
  <path id="Trazado_541" data-name="Trazado 541" d="M212.143,205.032a7.133,7.133,0,0,0-3.912-6.352,9.7,9.7,0,0,1-9.551,9.551,7.114,7.114,0,0,0,9.97,2.923l3.462.958-.958-3.462a7.086,7.086,0,0,0,.989-3.618Zm0,0" transform="translate(-190.143 -190.143)" fill="#444242"/>
  <path id="Trazado_542" data-name="Trazado 542" d="M16.8,8.4A8.4,8.4,0,1,0,1.165,12.67L.031,16.77l4.1-1.134A8.4,8.4,0,0,0,16.8,8.4ZM7.111,6.445H5.822a2.578,2.578,0,1,1,4.318,1.9l-1.1,1v1.005H7.756V8.783L9.27,7.4a1.276,1.276,0,0,0,.42-.952,1.289,1.289,0,1,0-2.578,0Zm.645,5.2H9.045v1.289H7.756Zm0,0" transform="translate(0 0)" fill="#444242"/>
</svg>
