<svg xmlns="http://www.w3.org/2000/svg" width="35.07" height="35" viewBox="0 0 35.07 35">
  <g id="internet" transform="translate(0 -0.316)">
    <path id="Trazado_520" data-name="Trazado 520" d="M231.816,352.15c2.733-.388,5.13-3.241,6.637-7.454a32.445,32.445,0,0,0-6.637-.781Zm0,0" transform="translate(-213.734 -316.834)" fill="#fbbb00"/>
    <path id="Trazado_521" data-name="Trazado 521" d="M280.056,364.085c.162-.047.323-.094.482-.146.135-.043.268-.09.4-.137.157-.054.314-.11.47-.169.133-.05.265-.1.4-.158l.455-.191c.131-.058.262-.118.392-.179.148-.07.294-.14.44-.214q.192-.1.383-.2.215-.115.427-.236c.128-.072.251-.145.376-.22l.413-.255c.123-.078.245-.157.366-.239s.268-.185.4-.28.237-.17.353-.255.259-.2.387-.3.227-.181.339-.274c.128-.106.25-.216.374-.326.109-.1.218-.192.324-.291.122-.114.241-.232.36-.349.1-.1.207-.2.308-.306l.056-.06a21.47,21.47,0,0,0-4.377-1.684,15.851,15.851,0,0,1-4.083,6.63l.155-.038C279.788,364.167,279.922,364.125,280.056,364.085Zm0,0" transform="translate(-257.852 -329.439)" fill="#fbbb00"/>
    <path id="Trazado_522" data-name="Trazado 522" d="M344.508,231.684h-7.66a33.132,33.132,0,0,1-1.29,8.838,22.215,22.215,0,0,1,4.848,1.929A17.848,17.848,0,0,0,344.508,231.684Zm0,0" transform="translate(-309.438 -213.391)" fill="#fbbb00"/>
    <path id="Trazado_523" data-name="Trazado 523" d="M231.816,117.466h8.3a31.958,31.958,0,0,0-1.258-8.524,33.649,33.649,0,0,1-7.039.839Zm0,0" transform="translate(-213.76 -100.167)" fill="#fbbb00"/>
    <path id="Trazado_524" data-name="Trazado 524" d="M231.816.316V8.552a32.467,32.467,0,0,0,6.637-.781c-1.508-4.213-3.9-7.066-6.637-7.454Zm0,0" transform="translate(-213.734)" fill="#fbbb00"/>
    <path id="Trazado_525" data-name="Trazado 525" d="M231.816,239.368a33.666,33.666,0,0,1,7.039.84,31.959,31.959,0,0,0,1.258-8.524h-8.3Zm0,0" transform="translate(-213.759 -213.35)" fill="#fbbb00"/>
    <path id="Trazado_526" data-name="Trazado 526" d="M340.406,80.844a22.217,22.217,0,0,1-4.848,1.929,33.129,33.129,0,0,1,1.29,8.838h7.66a17.853,17.853,0,0,0-4.1-10.767Zm0,0" transform="translate(-309.437 -74.271)" fill="#fbbb00"/>
    <path id="Trazado_527" data-name="Trazado 527" d="M287.922,11.741c-.019-.019-.037-.04-.055-.059-.1-.1-.206-.2-.309-.306-.119-.117-.237-.235-.359-.349-.106-.1-.215-.192-.324-.29-.124-.11-.248-.221-.375-.327-.11-.093-.224-.182-.336-.272-.128-.1-.259-.206-.391-.305-.115-.087-.232-.171-.35-.255-.133-.1-.268-.192-.4-.283-.119-.08-.241-.159-.362-.236-.138-.089-.276-.176-.417-.26-.123-.074-.248-.147-.372-.218q-.214-.123-.43-.238c-.128-.064-.255-.134-.383-.2-.147-.074-.3-.146-.447-.216q-.192-.091-.389-.178c-.151-.067-.3-.128-.457-.192-.132-.054-.263-.107-.4-.157-.155-.059-.312-.115-.469-.169-.133-.047-.266-.093-.4-.137-.16-.052-.319-.1-.483-.146-.133-.039-.266-.079-.4-.114-.051-.014-.1-.025-.156-.038a15.853,15.853,0,0,1,4.083,6.63,21.439,21.439,0,0,0,4.382-1.686Zm0,0" transform="translate(-257.816 -5.963)" fill="#fbbb00"/>
    <path id="Trazado_528" data-name="Trazado 528" d="M0,91.611H7.66a33.142,33.142,0,0,1,1.289-8.838A22.189,22.189,0,0,1,4.1,80.844,17.849,17.849,0,0,0,0,91.611Zm0,0" transform="translate(0 -74.271)" fill="#fbbb00"/>
    <path id="Trazado_529" data-name="Trazado 529" d="M139.332,352.15v-8.236a32.467,32.467,0,0,0-6.637.781C134.2,348.909,136.6,351.761,139.332,352.15Zm0,0" transform="translate(-122.344 -316.833)" fill="#fbbb00"/>
    <path id="Trazado_530" data-name="Trazado 530" d="M120.217,231.684h-8.3a31.946,31.946,0,0,0,1.258,8.524,33.627,33.627,0,0,1,7.039-.84Zm0,0" transform="translate(-103.203 -213.35)" fill="#fbbb00"/>
    <path id="Trazado_531" data-name="Trazado 531" d="M139.332.316C136.6.7,134.2,3.558,132.695,7.771a32.424,32.424,0,0,0,6.637.781Zm0,0" transform="translate(-122.344)" fill="#fbbb00"/>
    <path id="Trazado_532" data-name="Trazado 532" d="M120.218,109.781a33.649,33.649,0,0,1-7.039-.839,31.945,31.945,0,0,0-1.258,8.524h8.3Zm0,0" transform="translate(-103.204 -100.166)" fill="#fbbb00"/>
    <path id="Trazado_533" data-name="Trazado 533" d="M70.649,6.789l-.155.038c-.135.036-.269.076-.4.115-.16.047-.319.094-.48.145-.136.044-.269.091-.4.137-.156.055-.313.11-.468.169-.134.051-.265.1-.4.158l-.454.192c-.132.058-.262.118-.392.179-.148.07-.294.14-.44.214q-.192.1-.383.2-.215.115-.426.236-.192.107-.377.22c-.139.084-.276.17-.413.255s-.245.158-.366.24-.268.185-.4.28-.237.17-.353.256-.255.2-.387.3c-.114.091-.228.181-.339.275-.128.105-.249.215-.372.324s-.219.192-.326.293-.24.231-.358.347c-.1.1-.208.2-.309.307-.018.019-.036.041-.056.06a21.448,21.448,0,0,0,4.377,1.685,15.847,15.847,0,0,1,4.081-6.626Zm0,0" transform="translate(-57.225 -5.956)" fill="#fbbb00"/>
    <path id="Trazado_534" data-name="Trazado 534" d="M62.589,359.612c.119.117.237.235.359.349.106.1.215.192.324.29s.248.221.375.327c.11.093.223.182.336.272s.255.206.391.306c.115.086.232.17.349.256.133.1.268.192.4.284.119.081.241.159.362.236.138.089.276.176.417.26q.185.111.372.218.214.122.43.238c.128.064.255.133.383.2.147.074.3.146.447.216q.192.09.389.177c.151.067.3.128.457.192.132.054.263.107.4.157.155.06.312.115.469.169.133.046.266.093.4.137.16.052.319.1.483.146.133.039.266.079.4.115.052.014.1.025.156.038a15.857,15.857,0,0,1-4.083-6.63,21.443,21.443,0,0,0-4.377,1.685c.019.019.036.04.055.059C62.382,359.41,62.485,359.511,62.589,359.612Zm0,0" transform="translate(-57.261 -329.392)" fill="#fbbb00"/>
    <path id="Trazado_535" data-name="Trazado 535" d="M4.1,242.45a22.221,22.221,0,0,1,4.848-1.929,33.141,33.141,0,0,1-1.289-8.838H0A17.851,17.851,0,0,0,4.1,242.45Zm0,0" transform="translate(0 -213.39)" fill="#fbbb00"/>
  </g>
</svg>
