<svg xmlns="http://www.w3.org/2000/svg" width="16" height="14.019" viewBox="0 0 16 14.019">
  <path id="Unión_2" data-name="Unión 2" d="M0,13.914a5.887,5.887,0,0,0,1.7-2.043,11.467,11.467,0,0,0,.338-1.618,6.352,6.352,0,0,1-1-3.416C1.034,3.067,4.391,0,8.517,0S16,3.067,16,6.837s-3.357,6.837-7.483,6.837a7.975,7.975,0,0,1-3.83-.965c-.436.2-1.177.558-1.9.953a3.568,3.568,0,0,1-1.676.357A5.834,5.834,0,0,1,0,13.914Zm8.03-9A1.654,1.654,0,0,0,6.646,6.41H8.117L6.7,9.964a.792.792,0,0,0,.113.782.9.9,0,0,0,.766.365c.359-.027,1.067-.162,1.422-.216A1.561,1.561,0,0,0,10.387,9.4H8.917l1.414-3.554a.793.793,0,0,0-.113-.782A1.166,1.166,0,0,0,9.452,4.7l-.079,0A6.432,6.432,0,0,0,8.03,4.916Zm.487-1.5a.939.939,0,0,0,1.871,0,.939.939,0,0,0-1.871,0Z" fill="gray"/>
</svg>
