<svg xmlns="http://www.w3.org/2000/svg" width="18.78" height="18.974" viewBox="0 0 18.78 18.974">
  <g id="Grupo_272" data-name="Grupo 272" transform="translate(-1.358 4.676) rotate(-17)">
    <path id="Trazado_446" data-name="Trazado 446" d="M110.992,456.376a.971.971,0,0,0-.433.122l-7.2,4.073a1.425,1.425,0,0,0-.795,1.037v6.1a1.424,1.424,0,0,0,.795,1.037l7.2,4.073a.973.973,0,0,0,.433.122.323.323,0,0,0,.362-.338V456.714A.323.323,0,0,0,110.992,456.376Z" transform="translate(-95.36 -456.376)" fill="#444242"/>
    <path id="Trazado_447" data-name="Trazado 447" d="M61.31,494.5v-7.274h-3.9a2.7,2.7,0,0,0-2.7,2.7V491.8a2.683,2.683,0,0,0,.662,1.768h-.017l3.96,3.96h2.936L59.222,494.5Z" transform="translate(-54.714 -482.577)" fill="#444242"/>
  </g>
</svg>
