<svg xmlns="http://www.w3.org/2000/svg" width="19.815" height="19.815" viewBox="0 0 19.815 19.815">
  <g id="instagram" transform="translate(0)">
    <g id="Grupo_512" data-name="Grupo 512" transform="translate(4.831 4.832)">
      <path id="Trazado_582" data-name="Trazado 582" d="M708.051,292.458a1.973,1.973,0,1,0,1.973,1.973A1.975,1.975,0,0,0,708.051,292.458Z" transform="translate(-702.923 -289.354)" fill="#fbbb00"/>
      <path id="Trazado_583" data-name="Trazado 583" d="M700.242,279.268H695.25a2.583,2.583,0,0,0-2.58,2.58v4.993a2.582,2.582,0,0,0,2.58,2.58h4.993a2.583,2.583,0,0,0,2.58-2.58v-4.993A2.583,2.583,0,0,0,700.242,279.268Zm-2.445,8.156a3.08,3.08,0,1,1,3.08-3.08A3.083,3.083,0,0,1,697.8,287.424Zm3.26-5.633a.733.733,0,1,1,.733-.733A.733.733,0,0,1,701.057,281.791Z" transform="translate(-692.67 -279.268)" fill="#fbbb00"/>
    </g>
    <path id="Trazado_584" data-name="Trazado 584" d="M682.045,258.734a9.908,9.908,0,1,0,9.908,9.908A9.919,9.919,0,0,0,682.045,258.734Zm0,18.874a8.966,8.966,0,1,1,8.967-8.966A8.976,8.976,0,0,1,682.045,277.608Z" transform="translate(-672.137 -258.734)" fill="#fbbb00"/>
  </g>
</svg>
