<svg xmlns="http://www.w3.org/2000/svg" width="18" viewBox="0 0 22.916 29.813">
  <path id="candado_cerrado" data-name="candado cerrado" d="M594.537,517.64h.283a1.75,1.75,0,0,1,1.872,1.6,4.244,4.244,0,0,1,.05.666q0,6.606,0,13.211a2.684,2.684,0,0,1-.385,1.527,1.557,1.557,0,0,1-1.385.758c-2.115-.005-4.229,0-6.344,0H575.767a1.771,1.771,0,0,1-1.893-1.65,4.683,4.683,0,0,1-.045-.638q0-6.605,0-13.211a2.6,2.6,0,0,1,.422-1.573,1.486,1.486,0,0,1,1.273-.69c.154,0,.308,0,.5,0,.005-.117.013-.219.014-.321.015-1.037-.01-2.077.052-3.112A8.975,8.975,0,0,1,578.146,509a8.748,8.748,0,0,1,4.911-3.129,8.992,8.992,0,0,1,7.694,1.529,9.106,9.106,0,0,1,3.578,5.637,12.677,12.677,0,0,1,.2,2.021c.033.745.008,1.493.008,2.24Zm-3.835-.014c0-.926.006-1.827,0-2.727a5.455,5.455,0,0,0-1.139-3.322,5.379,5.379,0,0,0-9.616,2.559c-.112,1.134-.052,2.285-.069,3.428,0,.016.016.033.033.062Zm-7.261,10.992c0,.64-.008,1.28,0,1.92a.892.892,0,0,0,.97.957c.514.005,1.028,0,1.541,0,.889,0,1.176-.291,1.176-1.191,0-1.144.007-2.288-.006-3.432a.94.94,0,0,1,.227-.657,2.009,2.009,0,0,0,.331-.607,2.421,2.421,0,0,0-.542-2.613,2.551,2.551,0,0,0-3.861,3.32.784.784,0,0,1,.153.441C583.45,527.377,583.44,528,583.44,528.618Z" transform="translate(-573.828 -505.591)" fill="#444242"/>
</svg>
