<svg xmlns="http://www.w3.org/2000/svg" width="18" viewBox="0 0 22.916 29.81">
  <path id="candado_abierto" data-name="candado abierto" d="M782.364,523.7c0-.36-.012-.688,0-1.015.048-1.122.019-2.256.178-3.363a8.761,8.761,0,0,1,2.551-4.956,8.647,8.647,0,0,1,4.29-2.439,9.018,9.018,0,0,1,7.7,1.53,9.24,9.24,0,0,1,3.588,5.636c.043.2.063.4.1.631-.1.01-.185.025-.267.025-1.115,0-2.231,0-3.347.006-.206,0-.28-.069-.334-.26a5.39,5.39,0,0,0-10.519.5,14.728,14.728,0,0,0-.1,2.087c-.014.523,0,1.046,0,1.613h.353q4.075,0,8.149,0,3.23,0,6.46.015a1.733,1.733,0,0,1,1.863,1.6,4.544,4.544,0,0,1,.047.667q0,6.592,0,13.184a2.674,2.674,0,0,1-.41,1.578,1.526,1.526,0,0,1-1.32.718q-9.721,0-19.442,0a1.757,1.757,0,0,1-1.7-1.642,4.57,4.57,0,0,1-.046-.638q0-6.607,0-13.213a2.636,2.636,0,0,1,.388-1.525,1.509,1.509,0,0,1,1.362-.743C782.042,523.7,782.177,523.7,782.364,523.7Zm7.406,10.978c0,.64-.007,1.28,0,1.92a.892.892,0,0,0,.97.957c.524.005,1.047,0,1.571,0,.848,0,1.147-.3,1.147-1.162,0-1.154.007-2.307-.005-3.461a.94.94,0,0,1,.227-.657,2.01,2.01,0,0,0,.331-.607,2.421,2.421,0,0,0-.542-2.613,2.551,2.551,0,0,0-3.861,3.319.783.783,0,0,1,.153.441C789.78,533.436,789.77,534.057,789.77,534.678Z" transform="translate(-780.157 -511.653)" fill="#444242"/>
</svg>
