<svg id="localizado" xmlns="http://www.w3.org/2000/svg" width="14.352" height="20" viewBox="0 0 14.352 20">
  <g id="Grupo_219" data-name="Grupo 219">
    <path id="Trazado_400" data-name="Trazado 400" d="M157.12,2.563a6.75,6.75,0,0,0-10.576,0c-2.548,3.14-2.516,7.151.093,11.6a25.956,25.956,0,0,0,4.521,5.587,1.01,1.01,0,0,0,1.348,0,25.952,25.952,0,0,0,4.521-5.587C159.636,9.714,159.668,5.7,157.12,2.563Zm-2.648,6.551a3.733,3.733,0,1,1,0-5.28A3.71,3.71,0,0,1,154.472,9.114Z" transform="translate(-144.656 -0.008)" fill="#fff"/>
  </g>
</svg>
