<svg xmlns="http://www.w3.org/2000/svg" width="26.601" height="46.897" viewBox="0 0 26.601 46.897"><path d="M741.29,508.392a1.3,1.3,0,0,0-1.3,1.3v4.8a10.7,10.7,0,0,1-21.4,0v-4.8a1.3,1.3,0,1,0-2.6,0v4.8a13.308,13.308,0,0,0,12,13.219V530.8h-3.5a1.3,1.3,0,1,0,0,2.6h9.6a1.3,1.3,0,0,0,0-2.6h-3.5v-3.082a13.308,13.308,0,0,0,12-13.219v-4.8A1.3,1.3,0,0,0,741.29,508.392Z" transform="translate(-715.99 -486.495)" fill="#fff"/><path d="M729.29,486.495a8.81,8.81,0,0,0-8.483,6.491h11.727a1.746,1.746,0,1,1,0,3.492H720.489v2.734h12.045a1.746,1.746,0,1,1,0,3.492H720.489v2.4h12.045a1.746,1.746,0,1,1,0,3.492H720.489v5.9a8.8,8.8,0,1,0,17.6,0V495.3A8.812,8.812,0,0,0,729.29,486.495Z" transform="translate(-715.99 -486.495)" fill="#fff"/></svg>