<svg id="espacios_sin_foto" data-name="espacios sin foto" xmlns="http://www.w3.org/2000/svg" width="39.796" height="47.284" viewBox="0 0 39.796 47.284">
  <path id="Trazado_863" data-name="Trazado 863" d="M135.633,268.934a3.619,3.619,0,0,1-2.28-.846l-4.2-3.7a1.847,1.847,0,0,0-2.387-.116l-5.967,4.389v2.848a1.386,1.386,0,0,0,1.307,1.462h21.254a1.622,1.622,0,0,0,1.694-1.464v-7.463l-7.566,4.389A3.5,3.5,0,0,1,135.633,268.934Z" transform="translate(-120.8 -225.69)" fill="#444242"/>
  <circle id="Elipse_74" data-name="Elipse 74" cx="1.694" cy="1.694" r="1.694" transform="translate(12.83 32.39)" fill="#444242"/>
  <path id="Trazado_864" data-name="Trazado 864" d="M163.187,198.292a1.425,1.425,0,0,0-1.04-.577l-20.978-2.426a1.532,1.532,0,0,0-1.733,1.309l-.347,3h18.4a3.311,3.311,0,0,1,3.233,3.192v13.59c0-.078.347-.155.5-.308a1.309,1.309,0,0,0,.5-1.04l1.81-15.631A1.5,1.5,0,0,0,163.187,198.292Z" transform="translate(-134.92 -172.717)" fill="#444242"/>
  <path id="Trazado_865" data-name="Trazado 865" d="M143.4,221H122.265a1.556,1.556,0,0,0-1.425,1.655v10.972l5.082-3.7a3.388,3.388,0,0,1,4.273.192l4.234,3.7a1.963,1.963,0,0,0,2.28.192l8.393-4.889v-6.464A1.772,1.772,0,0,0,143.4,221Zm-8.044,8.893a3.233,3.233,0,1,1,3.233-3.233A3.233,3.233,0,0,1,135.356,229.893Z" transform="translate(-120.831 -192.577)" fill="#444242"/>
  <path id="Trazado_866" data-name="Trazado 866" d="M148.6,141.106c-2.244,1.446-5.016,1.393-7.778,1.637l.894.67c11.72-.228,20.125-9.5,19.954-20.966a21.03,21.03,0,0,0-6.8-15.09,2.823,2.823,0,0,1,.657-.684,2.779,2.779,0,0,1,.251-.162.369.369,0,0,0-.1-.684,3.134,3.134,0,0,0-.527-.084,3.211,3.211,0,0,0-1.724.367q-.841-.654-1.747-1.224a4.12,4.12,0,0,1,1.024-1.044,4.055,4.055,0,0,1,.356-.228.365.365,0,0,0-.109-.684,5.076,5.076,0,0,0-3.566.684,21.337,21.337,0,0,0-2.476-.96,3.5,3.5,0,0,1,.518-1.247,3.42,3.42,0,0,1,1.156-1.069.392.392,0,0,0-.176-.734,6.592,6.592,0,0,0-5.267,2.189,21.239,21.239,0,0,0-3.632-.176,8.039,8.039,0,0,1,1.448-2.495,7.892,7.892,0,0,1,2.935-2.064.369.369,0,0,0-.162-.709,22.658,22.658,0,0,0-12.511,4.068h-.274a6.9,6.9,0,0,0-6.738,8.366,23.535,23.535,0,0,0-1.993,6.64,1.281,1.281,0,0,0,.727,1.35,15.984,15.984,0,0,0,8.665,1.446,15.643,15.643,0,0,0,5.58-1.79.67.67,0,0,0-.039-1.195l-.7-.331a14.581,14.581,0,0,1,2.864-.5,5.508,5.508,0,0,1-.191,2.029,3.352,3.352,0,0,1-1.092,1.514c-1.081.757-1.6.657-1.947,1.368a2.165,2.165,0,0,0-.185.529,28.433,28.433,0,0,0,4.056.545c1.352.087,2.978.335,4.2.456a3.917,3.917,0,0,0-.05-.819c-.249-.657-.887-.942-1.254-1.215a5.943,5.943,0,0,1-1.551-3.053c-.059-.358-.082-1.042-.1-1.368a14.794,14.794,0,0,1,8.8,3.532,5.3,5.3,0,0,1-1.393,1.509,3.714,3.714,0,0,1-1.14.41,2.052,2.052,0,0,0-1.2,1.2c1.824.26,2.939.075,4.152,1.468a2.869,2.869,0,0,0,.212-.969c.023-.661-.21-1.024-.055-1.63a2.127,2.127,0,0,1,.534-.933,14.467,14.467,0,0,1,2.62,3.876,14.707,14.707,0,0,1-5,18.209l-.075.039ZM130.946,112.23a4.925,4.925,0,1,1,4.925-4.925A4.925,4.925,0,0,1,130.946,112.23Z" transform="translate(-121.88 -96.348)" fill="#444242"/>
  <circle id="Elipse_75" data-name="Elipse 75" cx="0.837" cy="0.837" r="0.837" transform="translate(9.226 12.049)" fill="#444242"/>
</svg>
