<svg xmlns="http://www.w3.org/2000/svg" width="29.714" height="34.841" viewBox="0 0 29.714 34.841"><defs><style>.a{fill:#fbbb00;}</style></defs><path class="a" d="M1476.255,825.241a2.6,2.6,0,0,1,1.55,2.087c.417,1.82.814,3.645,1.206,5.465a4.36,4.36,0,0,1,.079.848,1.7,1.7,0,0,1-1.221,1.763c-.576.207-1.156.4-1.744.581a1.426,1.426,0,0,0-1.016,1.11,3.8,3.8,0,0,0,.089,2.181,23.454,23.454,0,0,0,7.113,10.331,15.407,15.407,0,0,0,2.178,1.5,2.643,2.643,0,0,0,1.628.289,1.285,1.285,0,0,0,.978-.57c.322-.465.656-.93.98-1.4a1.815,1.815,0,0,1,2.5-.741c.582.248,1.129.57,1.684.871q1.57.86,3.13,1.722.4.224.784.477a2.543,2.543,0,0,1,1.335,1.927l-.1.688c-.232.527-.42,1.076-.7,1.576a7.348,7.348,0,0,1-5.626,3.941,15.351,15.351,0,0,1-1.537.072l-1.193-.172c-.472-.147-.952-.276-1.417-.444a19.076,19.076,0,0,1-6.14-3.887,51.336,51.336,0,0,1-11.421-15.677,18.036,18.036,0,0,1-1.537-5.752c-.044-.581-.031-1.176-.044-1.765l.172-1.193c.033-.088.073-.172.1-.264a7.273,7.273,0,0,1,5.565-5.426,15.229,15.229,0,0,1,1.929-.26Z" transform="translate(-1467.79 -825.122)"/></svg>