<svg id="escudo" xmlns="http://www.w3.org/2000/svg" width="17.031" height="20" viewBox="0 0 17.031 20">
  <path id="Trazado_401" data-name="Trazado 401" d="M124.252,158.457a3.811,3.811,0,1,0,3.811,3.811A3.815,3.815,0,0,0,124.252,158.457Zm2.262,3.093-2.73,2.73a.587.587,0,0,1-.83,0l-1.043-1.043a.587.587,0,0,1,.83-.83l.628.628,2.315-2.315a.587.587,0,0,1,.83.83Zm0,0" transform="translate(-115.736 -152.267)" fill="#444242"/>
  <path id="Trazado_402" data-name="Trazado 402" d="M17.011,5.426V5.41c-.009-.192-.014-.4-.018-.622a2.12,2.12,0,0,0-2-2.077A8.225,8.225,0,0,1,9.4.352L9.386.34a1.28,1.28,0,0,0-1.74,0L7.633.352a8.226,8.226,0,0,1-5.6,2.36,2.12,2.12,0,0,0-2,2.077c0,.225-.009.428-.018.621v.036A21.675,21.675,0,0,0,.9,13.358a10.072,10.072,0,0,0,2.416,3.764,12.64,12.64,0,0,0,4.728,2.8,1.465,1.465,0,0,0,.194.053,1.431,1.431,0,0,0,.563,0,1.469,1.469,0,0,0,.195-.053,12.648,12.648,0,0,0,4.723-2.8,10.086,10.086,0,0,0,2.416-3.764A21.708,21.708,0,0,0,17.011,5.426Zm-8.5,9.558A4.984,4.984,0,1,1,13.5,10,4.99,4.99,0,0,1,8.516,14.984Zm0,0" transform="translate(0 0.001)" fill="#444242"/>
</svg>
