<svg xmlns="http://www.w3.org/2000/svg" width="14.4" height="16" viewBox="0 0 14.4 16">
  <g id="calendario" transform="translate(-21.333)">
    <g id="Grupo_140" data-name="Grupo 140" transform="translate(21.333)">
      <g id="Grupo_139" data-name="Grupo 139">
        <path id="Trazado_281" data-name="Trazado 281" d="M34.133,1.6h-.8V0h-1.6V1.6h-6.4V0h-1.6V1.6h-.8a1.593,1.593,0,0,0-1.592,1.6l-.008,11.2a1.6,1.6,0,0,0,1.6,1.6h11.2a1.6,1.6,0,0,0,1.6-1.6V3.2A1.6,1.6,0,0,0,34.133,1.6Zm0,12.8h-11.2V5.6h11.2Z" transform="translate(-21.333)" fill="gray"/>
        <path id="Trazado_282" data-name="Trazado 282" d="M121.653,192.974l-.725-.974-3.339,4.484-1.45-1.948-.725.974,2.176,2.922Z" transform="translate(-111.361 -185.376)" fill="fff"/>
      </g>
    </g>
  </g>
</svg>
