<svg xmlns="http://www.w3.org/2000/svg" width="25.085" height="20" viewBox="0 0 25.085 20">
  <g id="rules" transform="translate(0 -51.894)">
    <g id="Grupo_463" data-name="Grupo 463" transform="translate(0 52.338)">
      <g id="Grupo_462" data-name="Grupo 462" transform="translate(0)">
        <path id="Trazado_543" data-name="Trazado 543" d="M10.054,62.316l-.233-.684A1,1,0,0,0,8.548,61L.678,63.682a1,1,0,0,0-.6.563,1.033,1.033,0,0,0-.017.732l.229.674a.283.283,0,0,0,.359.177l9.23-3.153A.283.283,0,0,0,10.054,62.316Z" transform="translate(0 -60.951)" fill="#444242"/>
      </g>
    </g>
    <g id="Grupo_465" data-name="Grupo 465" transform="translate(0.928 55.439)">
      <g id="Grupo_464" data-name="Grupo 464" transform="translate(0 0)">
        <path id="Trazado_544" data-name="Trazado 544" d="M32.91,136.7l-4.17-12.259a.283.283,0,0,0-.359-.177l-9.23,3.153a.283.283,0,0,0-.176.359l4.167,12.248a1,1,0,0,0,1.273.627l7.87-2.677a1,1,0,0,0,.627-1.273Zm-4.768-4.136a.735.735,0,0,1-1.027.3l-.919-.537a.283.283,0,0,0-.406.14l-.363.913a.735.735,0,0,1-.966.408.751.751,0,0,1-.393-.972l.468-1.179a.283.283,0,0,0-.12-.349l-1.3-.756a.736.736,0,1,1,.742-1.271l1.029.6a.283.283,0,0,0,.406-.14l.445-1.121a.736.736,0,0,1,.988-.4.749.749,0,0,1,.372.961l-.551,1.388a.283.283,0,0,0,.12.349l1.169.682A.749.749,0,0,1,28.142,132.56Z" transform="translate(-18.959 -124.244)" fill="#444242"/>
      </g>
    </g>
    <g id="Grupo_467" data-name="Grupo 467" transform="translate(15.743 51.894)">
      <g id="Grupo_466" data-name="Grupo 466" transform="translate(0 0)">
        <path id="Trazado_545" data-name="Trazado 545" d="M330.653,57.01a1,1,0,0,0-.451-.622l-7.086-4.346a1,1,0,0,0-1.379.329l-.347.564a.33.33,0,0,0,.107.454l8.242,5.131a.283.283,0,0,0,.391-.092l.4-.66A1,1,0,0,0,330.653,57.01Z" transform="translate(-321.34 -51.894)" fill="#444242"/>
      </g>
    </g>
    <g id="Grupo_469" data-name="Grupo 469" transform="translate(12.77 54.576)">
      <g id="Grupo_468" data-name="Grupo 468" transform="translate(0 0)">
        <path id="Trazado_546" data-name="Trazado 546" d="M271.261,111.838l-8.285-5.158a.283.283,0,0,0-.39.092l-1.887,3.063a.283.283,0,0,0-.027.24l3.593,10.563a1,1,0,0,1-.079.821,1.033,1.033,0,0,1-.57.459l-1.392.473a.283.283,0,0,0-.057.509l1.061.651a1,1,0,0,0,1.38-.331l6.744-10.995A.283.283,0,0,0,271.261,111.838Zm-4.689,2.624-2.969.419-.017,0-.024,0-.06,0h0l-.036,0h-.026a.727.727,0,0,1-.141-.026l-.023-.008-.041-.014-.029-.013-.032-.015-.03-.016-.029-.017-.029-.019-.028-.02-.025-.02-.029-.025-.021-.019-.03-.033-.015-.017c-.012-.014-.022-.028-.033-.043l-.008-.011a.738.738,0,0,1-.068-.121l-.007-.017c-.006-.015-.013-.031-.018-.047s-.007-.024-.01-.037-.006-.019-.008-.029-.005-.028-.008-.042,0-.015,0-.022v-.005c0-.015,0-.03,0-.046s0-.02,0-.031,0-.022,0-.034,0-.029,0-.043,0,0,0-.006l.149-1.766a.736.736,0,0,1,1.466.124l-.042.493a.283.283,0,0,0,.321.3l1.7-.24a.736.736,0,0,1,.206,1.457Z" transform="translate(-260.656 -106.637)" fill="#444242"/>
      </g>
    </g>
  </g>
</svg>
