<svg id="share" xmlns="http://www.w3.org/2000/svg" width="33.627" height="25.22" viewBox="0 0 33.627 25.22">
  <g id="Grupo_178" data-name="Grupo 178">
    <g id="Grupo_177" data-name="Grupo 177" transform="translate(0 0)">
      <path id="Trazado_378" data-name="Trazado 378" d="M133.044,72.58l-9.808-8.407a.7.7,0,0,0-1.156.532v4.914c-7.828.218-11.6,4.093-13.4,7.358a17.01,17.01,0,0,0-1.99,6.8q-.023.265-.023.54v0h0v0h0v.006h0v0h0v.008h0v0a0,0,0,0,0,0,0v0h0v.006s0,0,0,0v.006a.007.007,0,0,0,0,0v0h0v0h0v0h0v0a.7.7,0,0,0,1.4-.087h0c0-.036,0-.122.007-.255.306-5.826,11.068-7.147,14-7.4v4.852a.7.7,0,0,0,1.156.532l9.808-8.407a.7.7,0,0,0,0-1.063Z" transform="translate(-99.661 -64.004)" fill="#fff"/>
      <path id="Trazado_379" data-name="Trazado 379" d="M29.016,159.489a.7.7,0,0,0-.749.1l-1.4,1.2a.7.7,0,0,0-.244.532v4.816H2.8V152.131h7.829a.7.7,0,0,0,.46-.173,15.044,15.044,0,0,1,1.789-1.338.7.7,0,0,0-.376-1.291H2.8a2.805,2.805,0,0,0-2.8,2.8v14.011a2.805,2.805,0,0,0,2.8,2.8H26.622a2.805,2.805,0,0,0,2.8-2.8v-6.017A.7.7,0,0,0,29.016,159.489Z" transform="translate(0 -143.725)" fill="#fff"/>
    </g>
  </g>
</svg>
