<svg xmlns="http://www.w3.org/2000/svg" width="16" height="16" viewBox="0 0 16 16">
  <path id="experiencias" d="M14.333,12.667a1.654,1.654,0,0,0-.606.118l-2-1.995a4.631,4.631,0,0,0,0-5.58l2-1.995a1.664,1.664,0,1,0-1.061-1.549,1.654,1.654,0,0,0,.118.606l-2,2a4.631,4.631,0,0,0-5.579,0l-2-1.995A1.664,1.664,0,1,0,1.667,3.333a1.654,1.654,0,0,0,.606-.118l2,2a4.63,4.63,0,0,0,0,5.579l-2,2a1.641,1.641,0,0,0-.606-.119,1.679,1.679,0,1,0,1.549,1.061l2-2a4.631,4.631,0,0,0,5.579,0l2,2a1.648,1.648,0,0,0-.118.605,1.667,1.667,0,1,0,1.667-1.667ZM8,4.667A1.333,1.333,0,1,1,6.667,6,1.333,1.333,0,0,1,8,4.667Zm-2.167,6a.5.5,0,0,1-.5-.5V9.833A1.835,1.835,0,0,1,7.167,8H8.833a1.835,1.835,0,0,1,1.833,1.833v.333a.5.5,0,0,1-.5.5Z" fill="gray"/>
</svg>
