<svg id="perfil_viajero" data-name="perfil viajero" xmlns="http://www.w3.org/2000/svg" width="36.521" height="38.058" viewBox="0 0 36.521 38.058">
  <path id="Trazado_506" data-name="Trazado 506" d="M29.936,3.312a2.627,2.627,0,0,1,2.629,2.625h1.312a3.937,3.937,0,1,0-7.874,0h1.312a2.627,2.627,0,0,1,2.622-2.625Z" transform="translate(-11.782 -2)" fill="#fff"/>
  <path id="Trazado_507" data-name="Trazado 507" d="M25.312,50.5h7.874A1.313,1.313,0,0,0,34.5,49.187V41.312A1.313,1.313,0,0,0,33.185,40H25.312A1.313,1.313,0,0,0,24,41.312v7.874A1.313,1.313,0,0,0,25.312,50.5Zm0-8.53h7.874V43.28H25.312Z" transform="translate(-11.095 -15.066)" fill="#fff"/>
  <path id="Trazado_508" data-name="Trazado 508" d="M24.656,30.627l.656-.656V25H24v4.977Z" transform="translate(-11.095 -9.908)" fill="#fff"/>
  <path id="Trazado_509" data-name="Trazado 509" d="M23,21h2.625v1.313H23Z" transform="translate(-10.751 -8.533)" fill="#fff"/>
  <path id="Trazado_510" data-name="Trazado 510" d="M5.238,48.257l.468.352a3.537,3.537,0,0,0,2.68.655,2.278,2.278,0,0,0,1.876-1.983l1.01-9.089-2.879-.959L4.544,45.489a2.264,2.264,0,0,0,.693,2.768Z" transform="translate(-4.331 -14.113)" fill="#fff"/>
  <path id="Trazado_511" data-name="Trazado 511" d="M15.5,33.489l-1.072,9.617a3.584,3.584,0,0,1-1.781,2.7A3.948,3.948,0,0,0,16.1,47.853H34.6A3.936,3.936,0,0,0,38.1,45.7a3.575,3.575,0,0,1-1.616-2.594L35.409,33.49a.655.655,0,0,1,.445-.7l1.3-.433-.938-7.69c-.067.107-.126.217-.2.32a6.048,6.048,0,0,1-4.105,2.464v2.68a.654.654,0,0,1-.192.464L30.4,31.911a.655.655,0,0,1-.927,0L28.165,30.6a.654.654,0,0,1-.192-.464v-2.63H22.724v2.625a.654.654,0,0,1-.192.464l-1.312,1.312a.655.655,0,0,1-.927,0L18.982,30.6a.654.654,0,0,1-.192-.464v-2.68a6.046,6.046,0,0,1-4.106-2.464c-.074-.1-.134-.213-.2-.32l-.928,7.621,1.506.5a.655.655,0,0,1,.445.694Zm3.285,2.552a2.627,2.627,0,0,1,2.625-2.623h7.874a2.627,2.627,0,0,1,2.625,2.625v.438l1.841,2.448-1.05.788-.788-1.05v5.249a2.627,2.627,0,0,1-2.625,2.625H21.412a2.627,2.627,0,0,1-2.625-2.625Z" transform="translate(-7.194 -9.794)" fill="#fff"/>
  <path id="Trazado_512" data-name="Trazado 512" d="M19.949,20.738V19.316a1.308,1.308,0,0,1-.656-1.129V16.875a1.308,1.308,0,0,1,.656-1.129V9h-.166a1.982,1.982,0,0,0-1.837,1.262l-1.6,4.153a4.689,4.689,0,0,0,3.6,6.321Z" transform="translate(-8.355 -4.407)" fill="#fff"/>
  <path id="Trazado_513" data-name="Trazado 513" d="M24,9h1.312v6.565H24Z" transform="translate(-11.095 -4.407)" fill="#fff"/>
  <path id="Trazado_514" data-name="Trazado 514" d="M38.656,30.627l.656-.656V25H38v4.977Z" transform="translate(-15.909 -9.908)" fill="#fff"/>
  <path id="Trazado_515" data-name="Trazado 515" d="M37,21h2.625v1.313H37Z" transform="translate(-15.564 -8.533)" fill="#fff"/>
  <path id="Trazado_516" data-name="Trazado 516" d="M38,9h1.312v6.565H38Z" transform="translate(-15.909 -4.407)" fill="#fff"/>
  <path id="Trazado_517" data-name="Trazado 517" d="M33.249,15.744V9H28v6.744a1.308,1.308,0,0,1,.656,1.129v1.312A1.308,1.308,0,0,1,28,19.316v1.5h5.249v-1.5a1.308,1.308,0,0,1-.656-1.129V16.875a1.308,1.308,0,0,1,.656-1.131Z" transform="translate(-12.47 -4.407)" fill="#fff"/>
  <path id="Trazado_518" data-name="Trazado 518" d="M52.294,37.23l-2.879.959,1.01,9.089A2.278,2.278,0,0,0,52.3,49.261a3.525,3.525,0,0,0,2.68-.655l.469-.352a2.263,2.263,0,0,0,.693-2.767Z" transform="translate(-19.833 -14.113)" fill="#fff"/>
  <path id="Trazado_519" data-name="Trazado 519" d="M45.039,18.841a4.689,4.689,0,0,0,.563-4.421L44.01,10.261A1.982,1.982,0,0,0,42.166,9H42v6.744a1.308,1.308,0,0,1,.656,1.129v1.312A1.308,1.308,0,0,1,42,19.316v1.422a4.727,4.727,0,0,0,3.039-1.9Z" transform="translate(-17.284 -4.407)" fill="#fff"/>
</svg>
