<svg id="borrar" xmlns="http://www.w3.org/2000/svg" width="25.95" height="33.751" viewBox="0 0 25.95 33.751">
  <g id="Grupo_534" data-name="Grupo 534" transform="translate(0 0)">
    <path id="Trazado_575" data-name="Trazado 575" d="M2.833,5.625s.9.857.9,1.354V28.906A2.757,2.757,0,0,0,6.6,31.536H22.933a2.757,2.757,0,0,0,2.874-2.629V6.98c0-.5.9-1.354.9-1.354V2.969H2.833ZM19.455,8.659h2.134V25.583H19.455Zm-5.712,0h2.129V25.583H13.743Zm-5.145,0h2.13V25.583H8.6Z" transform="translate(-1.79 2.213)" fill="#444242"/>
    <path id="Trazado_576" data-name="Trazado 576" d="M28.185,2.986H21.57A3.879,3.879,0,0,0,17.68,0H12.742A3.879,3.879,0,0,0,8.851,2.986H2.235V4.609h25.95Zm-17.118,0a1.823,1.823,0,0,1,1.675-1.022h4.936a1.829,1.829,0,0,1,1.677,1.022Z" transform="translate(-2.235 0.001)" fill="#444242"/>
  </g>
</svg>
