<svg id="twitter" xmlns="http://www.w3.org/2000/svg" width="19.815" height="19.815" viewBox="0 0 19.815 19.815">
  <path id="Trazado_571" data-name="Trazado 571" d="M428.255,277.764a9.908,9.908,0,1,1,9.908-9.908A9.919,9.919,0,0,1,428.255,277.764Zm0-18.874a8.966,8.966,0,1,0,8.967,8.967A8.976,8.976,0,0,0,428.255,258.89Z" transform="translate(-418.348 -257.949)" fill="#fbbb00"/>
  <g id="Grupo_509" data-name="Grupo 509" transform="translate(4.059 5.12)">
    <path id="Trazado_572" data-name="Trazado 572" d="M447.179,280.859a4.78,4.78,0,0,1-1.174.335c.189-.032.468-.374.579-.513a2.161,2.161,0,0,0,.391-.712c.01-.02.018-.046,0-.061a.067.067,0,0,0-.062.005,6,6,0,0,1-1.395.534.094.094,0,0,1-.1-.025,1.122,1.122,0,0,0-.122-.125,2.467,2.467,0,0,0-.676-.414,2.352,2.352,0,0,0-1.036-.167,2.475,2.475,0,0,0-.983.278,2.528,2.528,0,0,0-.793.648,2.438,2.438,0,0,0-.474.948,2.572,2.572,0,0,0-.025,1c.008.056,0,.064-.048.056a7.449,7.449,0,0,1-4.793-2.44c-.056-.064-.086-.064-.132,0a2.43,2.43,0,0,0,.414,2.871c.094.089.19.178.294.259a2.444,2.444,0,0,1-.925-.259c-.056-.035-.084-.015-.089.048a1.461,1.461,0,0,0,.015.275,2.458,2.458,0,0,0,1.515,1.959,1.428,1.428,0,0,0,.307.094,2.74,2.74,0,0,1-.907.028c-.066-.013-.091.02-.066.084a2.551,2.551,0,0,0,1.906,1.6c.086.015.173.015.259.036-.005.008-.01.008-.015.015a3.02,3.02,0,0,1-1.3.69,4.663,4.663,0,0,1-1.977.253c-.106-.016-.128-.015-.157,0s0,.043.03.071c.135.089.272.168.412.244a6.536,6.536,0,0,0,1.321.528,7.037,7.037,0,0,0,6.832-1.6,7.168,7.168,0,0,0,1.891-5.23c0-.075.089-.117.142-.156a4.6,4.6,0,0,0,.925-.967.281.281,0,0,0,.057-.185v-.01C447.223,280.828,447.226,280.837,447.179,280.859Z" transform="translate(-435.599 -279.711)" fill="#fbbb00"/>
    <path id="Trazado_573" data-name="Trazado 573" d="M450.27,320.227Z" transform="translate(-446.818 -310.694)" fill="#fbbb00" fill-rule="evenodd"/>
    <path id="Trazado_574" data-name="Trazado 574" d="M449.982,320.227c-.015,0-.192,0,0,0Z" transform="translate(-446.53 -310.694)" fill="#fbbb00" fill-rule="evenodd"/>
    <path id="Trazado_575" data-name="Trazado 575" d="M451.933,320.242c0-.02.206,0,0,0C451.933,320.232,451.958,320.242,451.933,320.242Z" transform="translate(-448.09 -310.698)" fill="#fbbb00" fill-rule="evenodd"/>
    <path id="Trazado_576" data-name="Trazado 576" d="M469.25,279.771a.041.041,0,0,1-.048,0Z" transform="translate(-461.295 -279.757)" fill="#fbbb00" fill-rule="evenodd"/>
  </g>
</svg>
