<svg xmlns="http://www.w3.org/2000/svg" width="37.527" height="35.487" viewBox="0 0 37.527 35.487">
  <g id="perfil_asociacion" data-name="perfil asociacion" transform="translate(-1416.566 1072.364)">
    <path id="Trazado_870" data-name="Trazado 870" d="M744.182,833.012q-4.175,0-8.349,0a.946.946,0,0,1-.363-.085,5.135,5.135,0,0,1-1.846-1.333,4.291,4.291,0,0,1-1.106-2.653,16.223,16.223,0,0,1,2.285-9.5,12.443,12.443,0,0,1,5.13-4.8,8.826,8.826,0,0,1,3.065-.972,10.368,10.368,0,0,1,8.2,2.577,14.852,14.852,0,0,1,4.634,7.97,15.16,15.16,0,0,1,.388,4.483,4.763,4.763,0,0,1-2.206,3.848,2.836,2.836,0,0,1-1.6.428c-.989.015-1.978.035-2.967.038-1.755.006-3.511,0-5.266,0Z" transform="translate(690.985 -1869.918)" fill="#444242"/>
    <path id="Trazado_871" data-name="Trazado 871" d="M771.718,715.941c-3.94.18-7.288-3.579-7.292-7.2a7.3,7.3,0,1,1,14.6-.036C779.036,712.483,775.6,716.123,771.718,715.941Z" transform="translate(663.618 -1773.76)" fill="#444242"/>
    <path id="Trazado_872" data-name="Trazado 872" d="M881.034,847.916c.113-.151.208-.284.308-.412a6.592,6.592,0,0,0,1.442-3.225,14.852,14.852,0,0,0,.059-2.33,17.138,17.138,0,0,0-1.314-5.943,17.6,17.6,0,0,0-2.509-4.209c-.134-.17-.253-.352-.373-.532a2.339,2.339,0,0,1-.127-.266c.273.042.5.075.732.114a9.433,9.433,0,0,1,5.48,3.079,13.029,13.029,0,0,1,3.335,7.148,18.037,18.037,0,0,1,.183,2.19,4.689,4.689,0,0,1-.752,2.8,4.779,4.779,0,0,1-1.155,1.161,1.994,1.994,0,0,1-1.129.375c-1.332.043-2.666.06-4,.085A1.069,1.069,0,0,1,881.034,847.916Z" transform="translate(565.842 -1884.827)" fill="#444242"/>
    <path id="Trazado_873" data-name="Trazado 873" d="M693.958,831.138c-.087.125-.17.254-.262.376-.427.572-.891,1.12-1.279,1.717a17.421,17.421,0,0,0-2.649,6.97,16.17,16.17,0,0,0-.132,4.008,6.233,6.233,0,0,0,.84,2.421c.176.315.4.6.611.9.1.14.2.275.332.443a1.588,1.588,0,0,1-.227.034c-1.237-.019-2.475-.048-3.712-.06a2.9,2.9,0,0,1-2.188-1.131,4.42,4.42,0,0,1-1.091-2.62,12.919,12.919,0,0,1,.5-4.388,12.737,12.737,0,0,1,3.623-6.168,9.4,9.4,0,0,1,5.077-2.519c.167-.027.337-.038.505-.057Z" transform="translate(732.401 -1884.884)" fill="#444242"/>
    <path id="Trazado_874" data-name="Trazado 874" d="M718.964,733.45c-1.09,4.615.438,8.13,4.483,10.608-.138.07-.23.126-.329.165a11.521,11.521,0,0,0-2.6,1.457,2.24,2.24,0,0,1-1.585.451,6.67,6.67,0,0,1-3.891-1.354,6.364,6.364,0,0,1,3.336-11.324C718.578,733.435,718.776,733.45,718.964,733.45Z" transform="translate(707.999 -1801.224)" fill="#444242"/>
    <path id="Trazado_875" data-name="Trazado 875" d="M842.807,744.034a3.883,3.883,0,0,1,.4-.312,9.178,9.178,0,0,0,2.264-1.9,8.684,8.684,0,0,0,2.013-3.983,9.943,9.943,0,0,0,.074-2.843c-.044-.5-.178-1-.271-1.5-.007-.036-.01-.074-.016-.117a4.632,4.632,0,0,1,2.047.327,6.249,6.249,0,0,1,4.133,4.609,6.056,6.056,0,0,1-1.535,5.689,6.154,6.154,0,0,1-5.15,2.038,1.825,1.825,0,0,1-.741-.272c-.844-.474-1.672-.976-2.514-1.454A6.017,6.017,0,0,0,842.807,744.034Z" transform="translate(596.447 -1801.161)" fill="#444242"/>
  </g>
</svg>
