<svg xmlns="http://www.w3.org/2000/svg" width="23.226" height="34.659" viewBox="0 0 23.226 34.659">
  <g id="perfil_de_experto" data-name="perfil de experto" transform="translate(-1377.285 1070.045)">
    <path id="Trazado_894" data-name="Trazado 894" d="M480.735,838.759q-4.09,0-8.18,0a.879.879,0,0,1-.337-.078,5.03,5.03,0,0,1-1.819-1.313,4.206,4.206,0,0,1-1.076-2.595,15.933,15.933,0,0,1,2-8.887,12.283,12.283,0,0,1,5.256-5.09,8.616,8.616,0,0,1,3.089-.961,10.151,10.151,0,0,1,7.907,2.526,14.554,14.554,0,0,1,4.576,7.97,14.718,14.718,0,0,1,.341,4.218,4.655,4.655,0,0,1-2.162,3.758,2.776,2.776,0,0,1-1.565.414c-.961.014-1.921.034-2.882.037-1.716.006-3.432,0-5.147,0Zm5.315-1.672c0-.059,0-.084-.009-.108q-.523-2.735-1.051-5.47a.255.255,0,0,1,.088-.274q2-1.866,3.988-3.737a1.059,1.059,0,0,1,.17-.107c-.064-.052-.082-.057-.1-.06q-2.774-.352-5.548-.7a.27.27,0,0,1-.243-.182q-.758-1.626-1.524-3.248l-.888-1.889c-.125.264-.237.5-.348.733q-1.033,2.2-2.069,4.4c-.034.072-.113.165-.18.174-1.39.184-2.782.356-4.174.531l-1.529.194.215.2q1.959,1.837,3.921,3.671a.293.293,0,0,1,.1.307q-.466,2.394-.923,4.79c-.047.246-.089.493-.14.773.1-.051.159-.08.218-.113q2.358-1.3,4.715-2.6a.335.335,0,0,1,.373,0q2.362,1.311,4.731,2.609C485.9,837.014,485.966,837.043,486.05,837.087Z" transform="translate(907.989 -1874.145)" fill="#444242"/>
    <path id="Trazado_895" data-name="Trazado 895" d="M499.554,721.24a7.233,7.233,0,0,1,7.241-7.159,7.323,7.323,0,0,1,7,7.2c-.008,3.655-3.347,7.241-7.187,7.044A7.15,7.15,0,0,1,499.554,721.24Z" transform="translate(882.224 -1784.124)" fill="#444242"/>
  </g>
</svg>
