<svg xmlns="http://www.w3.org/2000/svg" height="30" viewBox="0 0 25.35 36.87">
  <g id="perfil_de_viajero" data-name="perfil de viajero" transform="translate(-306.212 -82.771)">
    <path id="Trazado_901" data-name="Trazado 901" d="M334.517,88.937a7.234,7.234,0,0,1,7.239-7.163,7.324,7.324,0,0,1,7.007,7.192c-.007,3.659-3.349,7.243-7.186,7.048A7.151,7.151,0,0,1,334.517,88.937Z" transform="translate(-22.401 1)" fill="#ffffff"/>
    <path id="Trazado_902" data-name="Trazado 902" d="M341.2,223.117h.561a1.48,1.48,0,0,0,.133.55.681.681,0,0,0,.474.241.634.634,0,0,0,.449-.248c.089-.127.062-.334.09-.542h.567V221.48h-.58v-.322h7.27v.316h-.578v1.633h.593c0,.136.008.249,0,.361a.219.219,0,0,0,.152.254.223.223,0,0,1,.071.039c.237.217.452.137.688-.02a.426.426,0,0,0,.189-.4c0-.2.09-.243.263-.225a3.24,3.24,0,0,0,.332,0v-1.61c-.1-.009-.2-.02-.305-.025-.283-.013-.283-.012-.256-.316.676-.12,1.432.122,2.04-.451v7.259H339.7v-7.268c.62.574,1.379.353,2.088.455,0,.046.012.091.013.136s0,.095-.009.179c-.155,0-.309-.008-.46,0-.047,0-.128.066-.129.1C341.2,222.088,341.2,222.591,341.2,223.117Z" transform="translate(-27.693 -114.878)" fill="#ffffff"/>
    <path id="Trazado_903" data-name="Trazado 903" d="M339.628,265.6H353.3c0,.07.012.135.012.2q0,1.379,0,2.758a5.015,5.015,0,0,1-.028.51.977.977,0,0,1-.935.838q-5.321,0-10.643-.006c-.361,0-.722-.013-1.082-.034a.918.918,0,0,1-.949-.955c-.011-.2-.01-.408-.012-.612q-.014-1.205-.026-2.41C339.627,265.8,339.628,265.71,339.628,265.6Z" transform="translate(-27.629 -151.994)" fill="#ffffff"/>
    <path id="Trazado_904" data-name="Trazado 904" d="M358.124,181.223v-6.361h1.392a7.05,7.05,0,0,1,.4-.815,2.112,2.112,0,0,1,2.094-1,2.144,2.144,0,0,1,1.865,1.473c.12.312.111.319.445.322.353,0,.707,0,1.077,0v6.383Zm2.133-6.4h3.023a1.575,1.575,0,0,0-3.023,0Z" transform="translate(-42.923 -75.456)" fill="#ffffff"/>
    <path id="Trazado_905" data-name="Trazado 905" d="M421.163,224.416a4.669,4.669,0,0,0,.212-1.751c.356,0,.71-.028,1.059.006a1.467,1.467,0,0,0,1.406-.768,1.006,1.006,0,0,0,.149-.536c.01-2.056.007-4.113.006-6.169a.976.976,0,0,0-.349-.833,3.259,3.259,0,0,1-.233-.229,1.017,1.017,0,0,0-.733-.3c-.429,0-.857,0-1.3,0v-.85a4.972,4.972,0,0,0,.562-.029,1.464,1.464,0,0,0,1.177-1.4c0-.919,0-1.839,0-2.758v-.251c.074.083.115.123.149.168a16.748,16.748,0,0,1,3.068,7.152,16.106,16.106,0,0,1,.243,3.944,5.046,5.046,0,0,1-2.355,4.1,2.37,2.37,0,0,1-1.256.431C422.375,224.362,421.785,224.391,421.163,224.416Z" transform="translate(-95.046 -104.824)" fill="#ffffff"/>
    <path id="Trazado_906" data-name="Trazado 906" d="M309.629,208.725c0,.528,0,1,0,1.465q.006.868.021,1.735a.543.543,0,0,0,.044.238c.208.391.75,1.024,1.382.952a2.743,2.743,0,0,1,.293,0v.865h-.211c-.415.005-.831,0-1.245.022a.627.627,0,0,0-.379.121,9.937,9.937,0,0,0-.722.792.392.392,0,0,0-.047.233q0,3.228.008,6.457a.747.747,0,0,0,.119.42,1.479,1.479,0,0,0,1.369.793c.357-.036.721-.006,1.1-.006.083.582-.107,1.193.237,1.754-.682,0-1.338.044-1.984-.019a2.288,2.288,0,0,1-.879-.409,4.843,4.843,0,0,1-2.5-4.065A17.319,17.319,0,0,1,308.166,211c.392-.743.892-1.429,1.344-2.141A1.514,1.514,0,0,1,309.629,208.725Z" transform="translate(0 -104.97)" fill="#ffffff"/>
    <path id="Trazado_907" data-name="Trazado 907" d="M339.657,290.578a1.782,1.782,0,0,0,1.424.441c3.493-.007,6.986,0,10.48,0,.122,0,.245,0,.368-.007a1.807,1.807,0,0,0,1.344-.362,1.359,1.359,0,0,1-.366,1.439.833.833,0,0,1-.43.152q-1.235.037-2.471.038c-3.1,0-6.2-.005-9.3.01a1.049,1.049,0,0,1-1.007-.81c-.017-.121-.038-.242-.045-.364C339.651,290.961,339.657,290.806,339.657,290.578Z" transform="translate(-27.652 -172.649)" fill="#ffffff"/>
    <path id="Trazado_908" data-name="Trazado 908" d="M421.853,242.672c.428,0,.823-.026,1.213.007a.942.942,0,0,1,.85.875c.018.2.032.393.032.59q0,2.337,0,4.674c0,.17-.013.34-.024.51a.934.934,0,0,1-.883.9c-.312.022-.626.005-.938.025-.194.013-.253-.045-.252-.245.008-1.4,0-2.8,0-4.2v-3.132Z" transform="translate(-95.613 -133.031)" fill="#ffffff"/>
    <path id="Trazado_909" data-name="Trazado 909" d="M326.544,250.371c-.451-.02-.9-.012-1.341-.068a.888.888,0,0,1-.665-.768c-.019-.23-.026-.462-.026-.693q0-2.572,0-5.144a.947.947,0,0,1,.779-.894c.411-.031.826-.007,1.258-.007Z" transform="translate(-15.127 -133.136)" fill="#ffffff"/>
    <path id="Trazado_910" data-name="Trazado 910" d="M341.852,189.959c-.447,0-.876.017-1.3-.006a.972.972,0,0,1-.744-.8c-.023-.312-.025-.626-.025-.939q0-1.757,0-3.513a1,1,0,0,1,.995-1.07c.352-.023.706,0,1.076,0Z" transform="translate(-27.754 -84.213)" fill="#ffffff"/>
    <path id="Trazado_911" data-name="Trazado 911" d="M406.736,189.822v-6.364a12.9,12.9,0,0,1,1.342.083.96.96,0,0,1,.686.891q.007,2.3,0,4.6a.963.963,0,0,1-.747.789C407.6,189.841,407.18,189.822,406.736,189.822Z" transform="translate(-83.117 -84.078)" fill="#ffffff"/>
    <path id="Trazado_912" data-name="Trazado 912" d="M421.987,206.581v-4.989a.988.988,0,0,1,1.151.905q.044,1.561.013,3.123C423.138,206.24,422.694,206.587,421.987,206.581Z" transform="translate(-95.727 -99.064)" fill="#ffffff"/>
    <path id="Trazado_913" data-name="Trazado 913" d="M330.721,201.61v4.943a.951.951,0,0,1-1.149-.841c-.023-1.081-.04-2.163-.01-3.243A1.008,1.008,0,0,1,330.721,201.61Z" transform="translate(-19.293 -99.079)" fill="#ffffff"/>
    <path id="Trazado_914" data-name="Trazado 914" d="M351,228.737v-.685h1.39v.685Z" transform="translate(-37.034 -120.95)" fill="#ffffff"/>
    <path id="Trazado_915" data-name="Trazado 915" d="M399.526,228.013h1.354v.7h-1.354Z" transform="translate(-77.156 -120.918)" fill="#ffffff"/>
  </g>
</svg>
