<svg xmlns="http://www.w3.org/2000/svg" width="18.664" height="20" viewBox="0 0 18.664 20">
  <g id="icono_de_usuario" data-name="icono de usuario" transform="translate(0)">
    <path id="Trazado_155" data-name="Trazado 155" d="M1631.143,804.545a5.2,5.2,0,1,0-5.413-5.192A5.321,5.321,0,0,0,1631.143,804.545Z" transform="translate(-1621.811 -794.16)" fill="#444242"/>
    <path id="Trazado_156" data-name="Trazado 156" d="M1639.138,812.865a4.794,4.794,0,0,0-.544-.953,6.766,6.766,0,0,0-4.657-2.812,1.029,1.029,0,0,0-.685.159,5.97,5.97,0,0,1-6.809,0,.915.915,0,0,0-.685-.159,6.716,6.716,0,0,0-4.657,2.812,5.487,5.487,0,0,0-.544.953.467.467,0,0,0,.023.431,9.1,9.1,0,0,0,.639.907,8.843,8.843,0,0,0,1.087,1.18,14.127,14.127,0,0,0,1.088.907,11.15,11.15,0,0,0,12.86,0,10.264,10.264,0,0,0,1.087-.907,10.684,10.684,0,0,0,1.088-1.18,7.938,7.938,0,0,0,.638-.907A.375.375,0,0,0,1639.138,812.865Z" transform="translate(-1620.514 -798.33)" fill="#444242"/>
  </g>
</svg>
