<svg xmlns="http://www.w3.org/2000/svg" width="39.414" height="47.333" viewBox="0 0 39.414 47.333">
  <g id="perfil_sin_foto" data-name="perfil sin foto" transform="translate(-61.337 -6.267)">
    <path id="Trazado_869" data-name="Trazado 869" d="M100.748,32.317a20.99,20.99,0,0,0-6.789-15.066,2.818,2.818,0,0,1,.656-.673,2.78,2.78,0,0,1,.25-.162.369.369,0,0,0-.1-.678,3.13,3.13,0,0,0-.526-.085,3.205,3.205,0,0,0-1.72.366q-.839-.653-1.744-1.223A4.114,4.114,0,0,1,91.8,13.753a4.052,4.052,0,0,1,.355-.225.366.366,0,0,0-.109-.682,5.069,5.069,0,0,0-3.561.69,21.306,21.306,0,0,0-2.468-.978,3.494,3.494,0,0,1,.516-1.245,3.423,3.423,0,0,1,1.155-1.069.392.392,0,0,0-.175-.732A6.58,6.58,0,0,0,82.25,11.7a21.208,21.208,0,0,0-3.626-.17,8.027,8.027,0,0,1,1.449-2.49A7.8,7.8,0,0,1,83,6.974a.369.369,0,0,0-.161-.707,22.632,22.632,0,0,0-12.5,4.061c-.09,0-.181-.007-.272-.007a6.886,6.886,0,0,0-6.728,8.352,23.5,23.5,0,0,0-1.992,6.62,1.278,1.278,0,0,0,.727,1.347,15.962,15.962,0,0,0,8.654,1.444,15.617,15.617,0,0,0,5.571-1.79.67.67,0,0,0-.038-1.193l-.7-.331a14.557,14.557,0,0,1,2.86-.5,2.18,2.18,0,0,1-.2,1.425,3.341,3.341,0,0,1-.706.759c-.967.893-1.538,1.023-1.9,1.737a2.2,2.2,0,0,0-.208.65,12.784,12.784,0,0,0,4.5,24.76c.376,0,.747-.02,1.115-.051l-.13.051C92.6,53.367,100.917,43.767,100.748,32.317ZM70.074,22.125a4.919,4.919,0,1,1,4.919-4.919A4.919,4.919,0,0,1,70.074,22.125Zm19.019,5.651a1.914,1.914,0,0,1-.774.959,2.693,2.693,0,0,1-1.411.217,17.279,17.279,0,0,0-1.9.134,12.688,12.688,0,0,0-1.294-.484,2.768,2.768,0,0,0-.117-.627,3.517,3.517,0,0,0-1.357-1.737c-.843-.632-1.255-.511-1.628-1.031a1.79,1.79,0,0,1-.309-.956,14.771,14.771,0,0,1,8.79,3.526ZM76.99,49.041c-.532.671-.767.8-1.227,1.4-.085.106-.156.208-.227.309h0c-.18-.078-.357-.161-.532-.249l-.078-.04q-.225-.114-.443-.239l-.1-.056q-.214-.124-.421-.256l-.085-.054q-.243-.16-.476-.332a3.551,3.551,0,0,0-.153-.616c-.307-.88-.946-.826-1.284-1.729a5.93,5.93,0,0,1-.251-1.981,1.823,1.823,0,0,0-.112-1.06c-.211-.366-.531-.413-.892-.642a3.606,3.606,0,0,1-1.255-2.009,8.028,8.028,0,0,1-.4-1.678h0c.006-.061.012-.123.019-.184a10.809,10.809,0,0,1,4.439-7.59l.043.022a1.394,1.394,0,0,0,.335.5c.382.36.755.265,1,.614.128.18.231.488.112.642-.205.267-.907-.133-1.144.17a.376.376,0,0,0-.027.388c.085.158.318.182.418.2.612.085,1.422.511,1.449.865.022.274-.414.623-.753.586-.275-.03-.4-.305-.53-.251s-.028.414-.112.753c-.126.511-.609.622-1.2,1.088-.215.17-1.4,1.1-1.284,1.981.08.631.774.832.67,1.339-.061.3-.367.572-.586.53-.372-.071-.21-1.007-.809-1.364-.341-.207-.845-.164-.949.028-.028.052-.064.183.614,1.06.574.742.667.736.809,1.06.25.572.078.865.335,1.06.3.228.63-.1,1.144-.028.609.085.715.627,1.7,1.729a6.488,6.488,0,0,0,1.786,1.59c.775.418,1.207.36,1.339.725C78.033,47.725,77.635,48.227,76.99,49.041Zm1.307-16.1c-.351.654-.53.981-.7.977-.186-.005-.233-.313-.753-1.255-.412-.745-.564-.881-.753-.949-.218-.078-.4-.032-.642-.2a1.03,1.03,0,0,1-.337-.393v-.018a10.824,10.824,0,0,1,6.891-.915,2.054,2.054,0,0,1-.528,1.018,2.415,2.415,0,0,1-1.06.586c-.892.28-1.3-.005-1.7.363C78.579,32.291,78.635,32.317,78.3,32.946ZM87.558,45.7c-.266.369-.158.714-.14,1.814.005.3,0,.677-.017,1.113q-.2.193-.413.377l-.008.006q-.208.18-.426.349l-.012.009q-.217.17-.443.326l-.01.007A10.764,10.764,0,0,1,83.571,51c.1-.431.426-.665.5-1.231.025-.2,0-.261-.2-1.116-.24-1.058-.361-1.587-.39-1.814-.153-1.139.075-1.43-.223-1.757-.274-.3-.614-.218-1.449-.335a4.277,4.277,0,0,1-2.4-.782c-.938-.95-.229-2.964-.14-3.208a4.1,4.1,0,0,1,2.371-2.511,3.958,3.958,0,0,1,2.2,0c1.171.315,1.436.947,2.259.865.792-.078,1.48-.755,1.4-1.06-.055-.2-.4-.112-1.311-.418-.778-.262-.931-.462-1.311-.39-.511.1-.778.556-.892.474-.134-.1.314-.666.112-.977-.188-.288-.893-.28-1.422-.028-.682.324-.7.873-1.227.949-.4.058-.9-.19-.949-.5s.33-.64.642-.782c.468-.212.8-.008.92-.2.148-.226-.17-.771-.558-1.116-.519-.459-1.023-.436-1.032-.642s.511-.5,1-.474c.359.02.45.2,1.284.5.482.177.623.182.725.112.228-.159.158-.63.14-.753-.085-.561-.409-.736-.335-1.088a.8.8,0,0,1,.335-.447,3.571,3.571,0,0,1,1.9-.7h.034a10.813,10.813,0,0,1,5.178,9.234c0,.251-.012.5-.028.747-.356-.1-.989-1.572-1.5-1.808-.652-.3-1.035-.717-1.116-.642-.038.035,0,.176.5.949.744,1.134,1.009,1.348.92,1.59-.161.44-1.205.188-1.422.7-.091.214.049.511.335,1.088.467.95.746,1.1.67,1.364C88.954,45.285,88.022,45.047,87.558,45.7Zm.276,5.183-.072.028a12.778,12.778,0,0,0,1.75-18.532,2.866,2.866,0,0,0,.217-.98c.023-.66-.209-1.023-.055-1.628a2.123,2.123,0,0,1,.532-.93A14.445,14.445,0,0,1,92.823,32.7a14.68,14.68,0,0,1-4.992,18.18Z" fill="#dddddd"/>
    <circle id="Elipse_77" data-name="Elipse 77" cx="0.984" cy="0.984" r="0.984" transform="translate(71.057 18.19)" fill="#dddddd"/>
  </g>
</svg>
