<svg id="icono_de_usuario" data-name="icono de usuario" xmlns="http://www.w3.org/2000/svg" width="31.33" height="35" viewBox="0 0 31.33 35">
  <path id="Trazado_155" data-name="Trazado 155" d="M1634.816,812.334a9.087,9.087,0,1,0-9.086-9.086A9.111,9.111,0,0,0,1634.816,812.334Z" transform="translate(-1619.152 -794.16)" fill="#e6e6e6"/>
  <path id="Trazado_156" data-name="Trazado 156" d="M1651.777,815.7a8.49,8.49,0,0,0-.913-1.667,11.294,11.294,0,0,0-7.817-4.921,1.672,1.672,0,0,0-1.15.279,9.687,9.687,0,0,1-11.43,0,1.487,1.487,0,0,0-1.15-.279,11.212,11.212,0,0,0-7.818,4.921,9.7,9.7,0,0,0-.913,1.667.847.847,0,0,0,.039.754,15.93,15.93,0,0,0,1.072,1.587,15.254,15.254,0,0,0,1.825,2.064,23.948,23.948,0,0,0,1.826,1.586,18.1,18.1,0,0,0,21.588,0,17.416,17.416,0,0,0,1.825-1.586,18.382,18.382,0,0,0,1.826-2.064,13.925,13.925,0,0,0,1.071-1.587A.676.676,0,0,0,1651.777,815.7Z" transform="translate(-1620.514 -790.262)" fill="#e6e6e6"/>
</svg>
